<svg id="Artwork" xmlns="http://www.w3.org/2000/svg" viewBox="0 0 713.16 385.75"><defs><style>.cls-1{fill:#fff;}.cls-2{fill:#14327d;}.cls-3{fill:#d92632;}.cls-4{fill:#008442;}.cls-5{fill:#00000f;}.cls-6{fill:#fcaf17;}</style></defs><title>partner3</title><path class="cls-1" d="M565.83,239.25h10.68a2.86,2.86,0,0,0-1.27,2.72c0,1.63,6,22.84,6,22.84l8.3-25.56,9.71,25.61s4.88-16,6-21.4c.89-3.17-.77-4-.77-4.21H613c-2.1,1.55-2.8,3.46-3.45,5.92l-8.19,29.3h-5.9l-6.29-18.81-6.23,18.81h-5.66l-8.12-30.29a9,9,0,0,0-3.29-4.93" transform="translate(-5.17 -6.04)"/><path class="cls-1" d="M515,239.25h10.78a6.87,6.87,0,0,0-1.69,3,4.94,4.94,0,0,0-.24,1.78v25.64a6.13,6.13,0,0,0,.37,2.11,5.8,5.8,0,0,0,1.6,2.65H515a5.52,5.52,0,0,0,1.56-2.65,6.41,6.41,0,0,0,.4-2.11V244.07a7.73,7.73,0,0,0-.26-1.78,5.2,5.2,0,0,0-1.7-3" transform="translate(-5.17 -6.04)"/><path class="cls-1" d="M651.67,274.48c1.52-1.38,1.28-2.86,1.28-3.94v-12.2c-1.13-2.26-7.75-14.16-8.76-15.72a9.16,9.16,0,0,0-3.56-3.37h10.22a2.87,2.87,0,0,0-.72,2.1c0,1.13.47,1.51,1.06,2.73.79,1.63,5.33,10,5.33,10s5.38-8.73,6.15-10.07c.67-1.17,1.26-2.25,1.07-3.14a2.1,2.1,0,0,0-.93-1.58h8.92c-3.33,2.73-3.75,4-5.53,7.08-1.52,2.63-6.78,12-6.78,12v12.2c.09,1.09-.13,2.61,1.43,3.94Z" transform="translate(-5.17 -6.04)"/><path class="cls-1" d="M697,240.86l-1.56,5.47c-.92-2.31-3-4.84-8.77-4.84-4.48,0-6.45,2.72-6.45,5.23,0,7,18,6.41,18,18.28,0,3.55-2.21,10.45-13.51,10.45A25.06,25.06,0,0,1,673,272.84l2.08-5.65c1.66,2.07,3.89,4.76,9.57,4.76,4.19,0,7.16-2.48,7.16-6,0-7.77-17.75-7-17.75-18.1,0-4.21,2.81-9.49,12.56-9.49,6.51,0,8.07,1.27,10.33,2.46" transform="translate(-5.17 -6.04)"/><path class="cls-1" d="M509.77,274.47c-4.4-3.22-5.15-6.86-7.3-11.87L486.71,226l-14.85,36.43c-2.07,5.08-2.95,8.6-7.23,12h10.75a4.07,4.07,0,0,1-1-2.88c0-2.17.72-3.34,1.52-5.35l1.48-3.64a7.73,7.73,0,0,1,.71-1.7h14.94a6.57,6.57,0,0,1,.77,1.78c.56,1.27.86,2,1.37,3.27.78,1.95,1.51,3,1.78,5.08a4.91,4.91,0,0,1,0,.78,5,5,0,0,1-.86,2.66Zm-29.87-18,5.52-13.76,5.79,13.76Z" transform="translate(-5.17 -6.04)"/><path class="cls-1" d="M646,274.48a10.59,10.59,0,0,1-3.34-4.29L626.93,237l-12.34,27.7a37.78,37.78,0,0,1-5.63,9.78h9.19a2.63,2.63,0,0,1-1-2.39,9.23,9.23,0,0,1,1.23-4.16c.7-1.63,1-2.61,1.78-4.23H632.5c.81,1.54,1.07,2.5,1.8,4.08a8.74,8.74,0,0,1,1.26,4.2,3.52,3.52,0,0,1-1.18,2.5Zm-24.09-14.86,4.34-10.23,4.45,10.23Z" transform="translate(-5.17 -6.04)"/><path class="cls-1" d="M533.7,239.25c6.61,0,10.33-.06,16.94,0,4.93.05,9.86,3,9.86,9.35,0,7.22-5.63,8.71-6.9,9.4,3.43,4.29,8.42,11.27,8.42,11.27,4.86,6.64,8.64,9.09,10.35,10-8.63,1.45-13.07-1.78-17.63-8.7-2-3-8.42-12.28-8.79-13.1,1.64-.07,7.61-1.64,7.61-7.84,0-5.27-3.47-6.65-5.92-6.65h-5.13v26.46a7.3,7.3,0,0,0,2,5.1H533.67a8.82,8.82,0,0,0,2-5.1V243.9a7.1,7.1,0,0,0-1.94-4.65" transform="translate(-5.17 -6.04)"/><path class="cls-1" d="M413.89,239.34h8.45l19.38,24.34V244.09a6.31,6.31,0,0,0-.44-2.26,5.53,5.53,0,0,0-1.49-2.49H449a6.2,6.2,0,0,0-2,4.9c0,11.83,0,18.49,0,30.32h-5.37l-20.49-26.42v21.8a5.79,5.79,0,0,0,.4,2.05,5.56,5.56,0,0,0,1.56,2.57h-9.26a5.56,5.56,0,0,0,1.56-2.68,6.18,6.18,0,0,0,.37-1.94c.05-9.93.08-15.54,0-25.48a6.43,6.43,0,0,0-2-5.12" transform="translate(-5.17 -6.04)"/><path class="cls-1" d="M287.71,239.34c6.61,0,10.33-.06,16.93,0,4.93,0,9.86,3,9.86,9.35,0,7.22-5.64,8.71-6.91,9.4,3.44,4.29,8.43,11.27,8.43,11.27,4.86,6.64,8.64,9.09,10.35,10-8.62,1.45-13.07-1.78-17.63-8.7-2-3-8.42-12.28-8.79-13.1,1.64-.07,7.6-1.64,7.6-7.84,0-5.27-3.45-6.66-5.9-6.66h-5.14v26.45a7.2,7.2,0,0,0,2,5.09H287.68a8.8,8.8,0,0,0,2-5.09V244a7.12,7.12,0,0,0-1.93-4.65" transform="translate(-5.17 -6.04)"/><path class="cls-1" d="M360.49,238.49A32.63,32.63,0,0,1,374.24,241c-.74,2.52-2,6.18-2,6.18-1.84-2.49-3.16-4.83-11.78-4.83-2.29,0-12.27,1.23-12.27,14.66,0,12.88,11.08,14.27,14,14.27,3.6,0,6.74,0,9.89-1.88l-1.23,4.12a27.85,27.85,0,0,1-10.4,2c-10.26,0-19.52-6.38-19.52-18.78,0-9.59,6.78-18.27,19.52-18.27" transform="translate(-5.17 -6.04)"/><path class="cls-1" d="M325.52,239.34H336.3a6.87,6.87,0,0,0-1.69,3,4.91,4.91,0,0,0-.24,1.78V269.8a6,6,0,0,0,.37,2.1,5.62,5.62,0,0,0,1.6,2.66H325.52a5.55,5.55,0,0,0,1.56-2.66,6.57,6.57,0,0,0,.4-2.1V244.16a7.65,7.65,0,0,0-.26-1.78,5.17,5.17,0,0,0-1.7-3" transform="translate(-5.17 -6.04)"/><path class="cls-1" d="M257.44,239.34h26.19l-1.7,6.58a6.05,6.05,0,0,0-5-2.15c-4.15,0-6.49,0-10.63,0v10.61h9.55a7,7,0,0,0,4-1c.49-.28.65-.62,1.11-.93v7.76a6.52,6.52,0,0,0-4.85-1.94c-3.8,0-5.94,0-9.75,0,0,4.46-.05,7,0,11.43a6.22,6.22,0,0,0,2,4.86H257.44a5.41,5.41,0,0,0,1.59-2.45,6,6,0,0,0,.36-2.22V244.24a8.15,8.15,0,0,0-.25-1.62,5.65,5.65,0,0,0-1.7-3.28" transform="translate(-5.17 -6.04)"/><path class="cls-1" d="M253.67,274.56c-4.4-3.22-5.16-6.86-7.31-11.87l-15.74-36.58-14.87,36.43c-2.06,5.07-2.94,8.6-7.23,12h10.76a4.07,4.07,0,0,1-1-2.89c0-2.16.7-3.33,1.51-5.34l1.48-3.64A7.53,7.53,0,0,1,222,261H237a6.6,6.6,0,0,1,.78,1.78c.54,1.27.86,2,1.37,3.27.78,1.95,1.5,3,1.78,5.08a6.52,6.52,0,0,1,0,.78,5,5,0,0,1-.84,2.66ZM223.8,256.61l5.52-13.76,5.78,13.76Z" transform="translate(-5.17 -6.04)"/><path class="cls-1" d="M83.06,239.3H94c-1.2,1.63-1.9,2.66-1.9,4.67v18.6c0,4.14,2.31,9,7.64,9H102c3.64,0,6.94-3.11,6.94-9V244A6.36,6.36,0,0,0,107,239.3h9.56a5.9,5.9,0,0,0-2,4.67c-.07,7.17,0,18.6,0,18.6,0,5.57-3.13,13-12.58,13H97.81c-5.68,0-12.79-3.17-12.79-13V244a7.54,7.54,0,0,0-2-4.67" transform="translate(-5.17 -6.04)"/><path class="cls-1" d="M157.27,239.34h10.79a6.11,6.11,0,0,0-1.93,4.77c0,3.95,0,6.17,0,10.12h16.94V244.14a6.88,6.88,0,0,0-.37-2.07,5.36,5.36,0,0,0-1.56-2.73h10.79a5.68,5.68,0,0,0-1.56,2.73,6.1,6.1,0,0,0-.41,2.07v25.6a6.69,6.69,0,0,0,.45,2.37,5.12,5.12,0,0,0,1.52,2.45H181.11a4.72,4.72,0,0,0,1.47-2.45,5.92,5.92,0,0,0,.49-2.26V258.54H166.13c0,4.39,0,6.87,0,11.27a6,6,0,0,0,2,4.75H157.27a6.28,6.28,0,0,0,2-5V244.4a8.08,8.08,0,0,0-.29-1.89,5.61,5.61,0,0,0-1.67-3.17" transform="translate(-5.17 -6.04)"/><path class="cls-1" d="M121.08,239.34h31.86l-1.47,5.81c-.4-.33-.52-.63-.93-.92a5.82,5.82,0,0,0-3.78-1.19c-2.43,0-3.8,0-6.23,0,0,10.35-.05,16.2,0,26.55a7.7,7.7,0,0,0,.46,2.65,4.26,4.26,0,0,0,1.54,2.32h-11a6.35,6.35,0,0,0,2-5.08V243h-5.74a7.56,7.56,0,0,0-2.74.47,3.82,3.82,0,0,0-2.44,1.72Z" transform="translate(-5.17 -6.04)"/><path class="cls-1" d="M61,238.49c-12.71,0-17.71,8.67-17.71,18.26,0,12.39,7.48,18.79,17.71,18.79s17.71-6.4,17.71-18.79c0-9.59-5-18.26-17.71-18.26m0,33.2C58,271.69,50.5,269.9,50.5,257c0-13.43,8.19-14.66,10.46-14.66S71.44,243.59,71.44,257c0,12.88-7.55,14.67-10.48,14.67" transform="translate(-5.17 -6.04)"/><path class="cls-1" d="M36.64,232.33l-2.59,6.51c-1.17-2.91-3.82-6.11-11.1-6.11-5.66,0-8.16,3.43-8.16,6.6,0,8.82,22.76,8.11,22.76,23.12,0,4.49-2.8,13.21-17.09,13.21a31.5,31.5,0,0,1-14.72-3.31l2.63-7.13c2.08,2.61,4.92,6,12.09,6,5.29,0,9.06-3.13,9.06-7.54,0-9.83-22.45-8.83-22.45-22.89,0-5.32,3.56-12,15.88-12,8.22,0,10.7,1.76,13.69,3.5" transform="translate(-5.17 -6.04)"/><path class="cls-1" d="M411.41,274.56a10.38,10.38,0,0,1-3.34-4.29l-15.71-33.19L380,264.79a37.84,37.84,0,0,1-5.63,9.77h9.18a2.62,2.62,0,0,1-1-2.38,9.31,9.31,0,0,1,1.22-4.16c.71-1.64,1-2.61,1.78-4.23h12.38c.81,1.54,1.08,2.5,1.81,4.08a8.86,8.86,0,0,1,1.27,4.19,3.52,3.52,0,0,1-1.19,2.5Zm-24.09-14.85,4.33-10.23,4.45,10.23Z" transform="translate(-5.17 -6.04)"/><path class="cls-1" d="M684.73,353.71l12.94-.91a85,85,0,0,0-9.78-5.61A86.36,86.36,0,0,0,677.48,343Z" transform="translate(-5.17 -6.04)"/><path class="cls-1" d="M662.77,342.78l9.33,9a84.32,84.32,0,0,0-2.37-11,83.37,83.37,0,0,0-3.82-10.57Z" transform="translate(-5.17 -6.04)"/><path class="cls-1" d="M661.79,342.53,664.93,330a84.77,84.77,0,0,0-8.36,7.57,82.12,82.12,0,0,0-7.24,8.59Z" transform="translate(-5.17 -6.04)"/><path class="cls-1" d="M662.07,343.5l-12.47,3.58a86.13,86.13,0,0,0,10.73,3.46,83.12,83.12,0,0,0,11.06,2Z" transform="translate(-5.17 -6.04)"/><path class="cls-1" d="M683.89,354.28l-7.24-10.75a83.14,83.14,0,0,0,0,11.27,84.47,84.47,0,0,0,1.55,11.13Z" transform="translate(-5.17 -6.04)"/><path class="cls-1" d="M684.8,354.72l-5.67,11.65a84,84,0,0,0,9.74-5.66,86.72,86.72,0,0,0,8.87-6.9Z" transform="translate(-5.17 -6.04)"/><path class="cls-1" d="M680.26,379.36l-12.84-1.79a84.44,84.44,0,0,0,17.7,13.82Z" transform="translate(-5.17 -6.04)"/><path class="cls-1" d="M680.4,378.36l8-10.2a83.1,83.1,0,0,0-10.71,3.5,84.27,84.27,0,0,0-10.11,4.9Z" transform="translate(-5.17 -6.04)"/><path class="cls-1" d="M681.2,379l4.86,12a82.63,82.63,0,0,0,2.31-11,83.7,83.7,0,0,0,.81-11.21Z" transform="translate(-5.17 -6.04)"/><path class="cls-1" d="M656.39,382.48l12.2,4.4a86.59,86.59,0,0,0-6.67-9.08,85.43,85.43,0,0,0-7.81-8.08Z" transform="translate(-5.17 -6.04)"/><path class="cls-1" d="M655.39,382.66l-2.27-12.76A82.95,82.95,0,0,0,645.49,391Z" transform="translate(-5.17 -6.04)"/><path class="cls-1" d="M656,383.44l-9.9,8.36a83.85,83.85,0,0,0,22.1-4Z" transform="translate(-5.17 -6.04)"/><path class="cls-1" d="M645.08,360.93l-.45,13a83.88,83.88,0,0,0,11.9-19Z" transform="translate(-5.17 -6.04)"/><path class="cls-1" d="M644.6,360,656.05,354a82.65,82.65,0,0,0-11.21-1.15,83.79,83.79,0,0,0-11.24.37Z" transform="translate(-5.17 -6.04)"/><path class="cls-1" d="M644.07,360.9l-11-6.87a83,83,0,0,0,10.55,19.83Z" transform="translate(-5.17 -6.04)"/><polygon class="cls-1" points="701.63 350.26 702.25 350.26 702.25 344.89 704.58 344.89 704.58 344.32 699.31 344.32 699.31 344.89 701.63 344.89 701.63 350.26"/><polygon class="cls-1" points="712.29 344.32 713.16 344.32 713.16 350.26 712.55 350.26 712.55 345.13 712.53 345.13 709.91 350.26 709.35 350.26 706.74 345.12 706.72 345.12 706.72 350.26 706.1 350.26 706.1 344.32 707 344.32 709.64 349.49 712.29 344.32"/><polygon class="cls-1" points="436.17 344.17 440.02 344.17 440.02 370.54 437.32 370.54 437.32 347.77 437.24 347.77 425.63 370.54 423.11 370.54 411.52 347.73 411.45 347.73 411.45 370.54 408.74 370.54 408.74 344.17 412.7 344.17 424.44 367.1 436.17 344.17"/><path class="cls-1" d="M338.16,363.47c0,8.29,5.74,13.64,14.23,13.64,7.89,0,12.65-5.32,13.29-10.6l.08-.64h-2.85l-.07.48c-.92,5.07-4.91,8.2-10.45,8.2-8.17,0-11.42-5.73-11.42-11.1,0-6.57,4.72-11.15,11.52-11.15,5.18,0,8.9,2.47,9.95,6.61l.11.45h2.85l-.16-.7c-1.31-5.68-5.95-8.92-12.75-8.92-9.65,0-14.33,7.11-14.33,13.73m36.06-13.17v26.25h21.19V374H376.94v-9.76h17.52v-2.52H376.94v-8.84H395.2V350.3h-21m-47.28,0v21.91c-1.69-2-19-21.91-19-21.91h-2.74v26.25h2.7v-21.9c1.68,2,19,21.9,19,21.9h2.74V350.3h-2.7M260,376.55h2.73V350.3H260ZM235.46,350.3v26.25h18.88V374H238.18V350.3h-2.72m-24.79,0v26.25H229.6V374H213.41V350.3h-2.74m73.81,3.63c.82,1.81,4.87,10.67,5.46,12H279c.61-1.32,4.68-10.18,5.5-12m-1.27-3.63-12.08,26.25h3s3.42-7.48,3.71-8.1h13.23l3.72,8.1h3l-12-26.25h-2.54m-94.33,3.63c.85,1.81,4.87,10.67,5.48,12h-11c.61-1.32,4.67-10.18,5.49-12m-1.25-3.63-12.08,26.25h3l3.7-8.1h13.23c.27.61,3.72,8.1,3.72,8.1h3l-12-26.25h-2.54m-40.11,2.58c4.13,0,6.16,1.48,6.16,4.56,0,3.45-2.15,5.14-6.55,5.14H136.71v-9.7h10.81M134,350.3v26.25h2.74V365.14h10.63c4.67,0,5.78.94,5.89,5,.11,4.26.3,5.65.88,6.23l.16.15h2.82l-.44-.84c-.43-.82-.57-2.43-.63-6.69a5.5,5.5,0,0,0-3.72-5.32,6.8,6.8,0,0,0,4.15-6.17c0-4.87-3-7.23-9.07-7.23H134m-20.92,3.63c.82,1.81,4.88,10.67,5.49,12h-11c.59-1.32,4.63-10.18,5.46-12m-1.24-3.63L99.75,376.55h3l3.74-8.1h13.23c.27.62,3.69,8.1,3.69,8.1h3L114.32,350.3h-2.51M76,350.3v2.58H86.13v23.67h2.7V352.88H99V350.3H76M48.11,368a7.9,7.9,0,0,0,2.28,6c2,2,5.63,3.08,10.14,3.08,2.53,0,11.21-.58,11.21-7.75,0-6.34-5.78-6.93-10.88-7.45-5.27-.52-9.15-1.11-9.15-4.67a4.12,4.12,0,0,1,2.79-3.92,14.3,14.3,0,0,1,6.18-1c1.66,0,4.72.25,6.44,2a4.73,4.73,0,0,1,1.22,3.33l2.65,0a7.31,7.31,0,0,0-1.85-5.09c-2.22-2.22-5.94-2.67-8.68-2.67-3.76,0-7.46.81-9.73,3.08a5.83,5.83,0,0,0-1.8,4.3c0,6.19,6.31,6.69,11.26,7.14a21.45,21.45,0,0,1,6.2,1.13,3.9,3.9,0,0,1,2.54,4,4.17,4.17,0,0,1-1.22,3.08c-1.91,1.92-5.91,2.13-7.36,2.13-3.56,0-6.44-.78-8-2.31A5.77,5.77,0,0,1,50.71,368h-2.6" transform="translate(-5.17 -6.04)"/><path class="cls-1" d="M13,365.78c.6-1.33,4.64-10.19,5.46-12,.83,1.81,4.89,10.67,5.49,12Zm6.73-15.63h-2.5L5.18,376.4h3l3.73-8.1H25.1c.29.62,3.69,8.1,3.69,8.1h3L19.75,350.15" transform="translate(-5.17 -6.04)"/><polygon class="cls-1" points="448.51 344.31 448.51 370.56 469.71 370.56 469.71 368 451.23 368 451.23 358.25 468.77 358.25 468.77 355.73 451.23 355.73 451.23 346.88 469.5 346.88 469.5 344.31 448.51 344.31"/><polygon class="cls-1" points="505.42 344.18 509.28 344.18 509.28 370.55 506.57 370.55 506.57 347.78 506.5 347.78 494.88 370.55 492.36 370.55 480.79 347.74 480.71 347.74 480.71 370.55 478 370.55 478 344.18 481.96 344.18 493.7 367.11 505.42 344.18"/><path class="cls-1" d="M525.72,364.2h12.12c3.15,0,5.51,1.07,5.51,4.88,0,3.62-2.66,5-6.18,5H525.72ZM523,376.58h14.58c4,0,8.65-2,8.65-7.5a6.19,6.19,0,0,0-5.53-6.42v-.07a5.57,5.57,0,0,0,4.51-5.68c0-3.73-2.15-6.62-7.3-6.62H523Zm2.69-23.81h11.71c3,0,5.11,1,5.11,4.26,0,3.51-2.35,4.69-6,4.69H525.72v-9" transform="translate(-5.17 -6.04)"/><polygon class="cls-1" points="549.67 344.28 549.67 370.54 570.87 370.54 570.87 367.97 552.38 367.97 552.38 358.22 569.93 358.22 569.93 355.7 552.38 355.7 552.38 346.85 570.66 346.85 570.66 344.28 549.67 344.28"/><path class="cls-1" d="M597.44,362.59H587v-9.7h10.81c4.14,0,6.16,1.49,6.16,4.57,0,3.45-2.14,5.13-6.55,5.13M607,375.74c-.43-.82-.58-2.45-.62-6.69a5.51,5.51,0,0,0-3.72-5.33,6.79,6.79,0,0,0,4.14-6.17c0-4.87-3-7.23-9.07-7.23h-13.4v26.26H587V365.16h10.63c4.69,0,5.79.94,5.91,5,.09,4.26.29,5.66.86,6.22l.16.17h2.83l-.45-.84" transform="translate(-5.17 -6.04)"/><rect class="cls-1" y="305.77" width="691.54" height="1.41"/><polygon class="cls-1" points="208.7 0 280.22 185.54 490.54 185.54 286.96 0 208.7 0"/><path class="cls-2" d="M289.29,183.18l124.15-57.27,40,36.28c12,10.75,23.77,21.72,23.77,21.72H289.58Z" transform="translate(-5.17 -6.04)"/><polygon class="cls-3" points="239 60.62 342.83 60.62 284.42 6.64 218.33 6.64 239 60.62"/><polygon class="cls-4" points="239.81 62.5 356.1 72.8 399.73 111.99 282.93 174.09 364.66 97.29 239.81 62.5"/><polygon class="cls-5" points="240.52 64.41 313.91 111.97 282.2 172.13 240.52 64.41"/><path class="cls-6" d="M251.92,40.94A15.67,15.67,0,1,1,267.6,56.23a15.48,15.48,0,0,1-15.68-15.29" transform="translate(-5.17 -6.04)"/><polygon class="cls-6" points="240.52 64.41 313.91 111.97 282.2 172.13 282.94 174.09 364.66 97.29 239.81 62.5 240.52 64.41"/></svg>