<svg xmlns="http://www.w3.org/2000/svg" viewBox="0 0 205.65 102.7"><defs><style>.cls-1,.cls-5,.cls-8{fill:#fff;}.cls-1{stroke:#fff;stroke-miterlimit:10;}.cls-2{fill:#008c3c;}.cls-3{fill:#fc0;}.cls-3,.cls-7,.cls-8{fill-rule:evenodd;}.cls-4{fill:#153d8a;}.cls-6{fill:#e30613;}.cls-7{fill:#0d181c;}</style></defs><title>partner-border</title><g id="Ebene_1" data-name="Ebene 1"><rect class="cls-1" x="0.5" y="0.5" width="204.65" height="75.9"/><polygon class="cls-2" points="153.82 0.5 151.82 0.5 130.32 0.5 151.82 14 190.93 38.5 151.82 63 130.32 76.4 151.82 76.4 153.82 76.4 205.13 43.2 205.13 33.7 153.82 0.5"/><polygon class="cls-3" points="177.82 38.5 116.22 76.4 130.32 76.4 190.93 38.5 130.32 0.5 116.22 0.5 177.82 38.5"/><polygon class="cls-4" points="205.13 76.4 205.13 51.5 166.72 76.4 205.13 76.4"/><polygon class="cls-5" points="153.82 76.4 166.72 76.4 205.13 51.5 205.13 43.2 153.82 76.4"/><polygon class="cls-6" points="166.72 0.5 205.13 25.5 205.13 0.5 166.72 0.5"/><polygon class="cls-5" points="153.82 0.5 205.13 33.7 205.13 25.5 166.72 0.5 153.82 0.5"/><polygon class="cls-7" points="0.53 76.4 116.33 76.4 177.93 38.5 116.33 0.5 0.53 0.5 0.53 76.4"/><path class="cls-8" d="M127.1,35.2a5.34,5.34,0,0,0-3.3.2,7.61,7.61,0,0,0-3.4,2.7,6.3,6.3,0,0,1,1-2.7,14.19,14.19,0,0,0-2.2.5c-.1.1-.2.1-.3.2a1.62,1.62,0,0,0-.5.9l-2,8.9a3.29,3.29,0,0,0,1.3.7,10.55,10.55,0,0,0,2.4-.6,1.73,1.73,0,0,1,.1-1,11.7,11.7,0,0,0,.5-2,10.15,10.15,0,0,1,6.4-7.1C127.5,35.5,127.6,35.2,127.1,35.2Zm4.4-3.3.1.1a10.55,10.55,0,0,0,2.4-.6,2.16,2.16,0,0,0,1.1-1.2,2.51,2.51,0,0,0-.2-1.5.71.71,0,0,0-.6-.3c-.2,0-.3.1-.5.2l-1.5.6c-1,.3-1.5,1-1.4,1.2a5.64,5.64,0,0,1,.4,1.2C131.4,31.7,131.4,31.8,131.5,31.9ZM96.7,35.7c2.5-5.4,5.1-10.8,6-12.2,0,0,.3-.3.3.2a84.21,84.21,0,0,0,.8,10C101.4,34.3,99,35,96.7,35.7Zm26.9-5.6a3.55,3.55,0,0,0,1.4-2.5c-1.4.9-.7-.2-6,1.5-.6.2-1.8.6-3.5,1.1l.1-.8c.7-5.5,4.4-6.9,7-8.2.6-.3,1.1-2.2-2-1.6-4.5,1-6.8,5.8-7.4,7.8l-.4,1.3-.6,2.4c-1.5.4-3.2.9-4.9,1.4-.8-8.1-.7-12.3-2-12.8-.4-.1-2.4-.8-3.5-.1s-6.1,9.6-10.2,17.5c-2.3.6-4.6,1.4-6.8,2.2-1,.5,1.7,2.4,2.9,2.6a9.36,9.36,0,0,0,1.6-.4c-2,3.9-3.5,7.1-3.8,7.9,1-.2,3,.8,4.5-.1a5.63,5.63,0,0,0,2.1-2.9c.6-1.5,1.6-3.9,2.8-6.6,2.8-.9,6.2-2,9.5-3.1.9,4.5,1.5,8.9,4.1,11.3.3.2,1.1.7.9,0-1.2-4.3-1.4-8.6-1.8-12.4l4-1.3c-1.2,7.1.2,13.8,1.8,13.8.7,0,.7-1.1.9-2,.1-.7.2-3.9.3-4.6l.8-8.3,5.1-1.7C121.8,30.9,123.1,30.4,123.6,30.1Zm25.8,4c-1.3.1-2.8,1.4-3.9,3.1l-.1.1-.6.9c-2,2.8-4.6,6.4-6.4,6.4-.7,0-1.3-1.4-.7-3.1,1.9-5.5,6.7-6.5,6.3-7.2a8.26,8.26,0,0,0-6.9,1.8c-3.5,2.5-7.4,7.4-7.6,7.1-.9-1.5,2.6-5.7,4.2-8.8h-1.4a7.87,7.87,0,0,0-3,.8s-3,4.3-3.3,6.2c-.4,2.2.1,4.6,1.4,4.6,2,0,4.6-3.5,6.6-6.1a5.64,5.64,0,0,0-.4,1.2c-.7,2.7-.1,5.9,3.8,5.9,1.8,0,3.9-2.4,5.7-4.8-.4,1.9,0,3.4,1.7,3.3a6.53,6.53,0,0,0,4.8-2.5c1,3,3.2,2,3.2,2a6,6,0,0,1-.7-3.2,45.83,45.83,0,0,1,1-6.3l.3-1.2a17.9,17.9,0,0,0-4-.2Zm-.4,6.6a9.35,9.35,0,0,1-2.8,2.8c-.2-1.1,1.3-4.5,2.3-5.9a3.71,3.71,0,0,1,1.3-1.3c1.1.2-.2,3.5-.8,4.4ZM15.4,37.2c2.9-.1,6.4-1.9,6.1,2a9.26,9.26,0,0,1-2,4.1c-1.3,1.7-5.6,7.3-5.9,8.1s.5.5.8.9c6.1-4.4,10.2-10.4,15.4-14.5-.3,1.7-3.3,7.8,1.3,7.6A6.62,6.62,0,0,0,37,40.5a18.46,18.46,0,0,0,.6-5.7c-2.5.3-3.2-.6-4.5-.5-2.6.1-4.9,3.8-7.9,6.8a6.18,6.18,0,0,0,.9-2.7c.2-3.4-4.1-3.8-6.1-3.7a18.75,18.75,0,0,1-4.1.1c-.2-.1,0-.3.3-.9,1-2.4,8.5-12,9.7-13.2.2-.1-.4-.5-.8-.7a3.9,3.9,0,0,0-4.7.1c-4.1,4.2-7.5,8.2-8.7,11.3C10.2,34.9,10.8,37.4,15.4,37.2Zm17.5,1.4c.3-.8.6-.7.8-1.1,1,.3.6,3.2.3,4a6.9,6.9,0,0,1-1.8,2.4C31.8,42.8,32.4,39.8,32.9,38.6Zm43.6-.8c-1.3-2.5-6.9,2.5-7.5,3.2a61.3,61.3,0,0,1,2.2-7.2,61.36,61.36,0,0,1,4-10c.4-.8.5-1.7-.2-2.1a1.42,1.42,0,0,0-.6-.2,19.48,19.48,0,0,0-2.3.6l-3.5,8.3a36.89,36.89,0,0,1-4.9,1.3c.2-1.5,3.9-5.5.4-5-.8.1-.5.4-1.5.4-1.3,1.8-1.9,4.3-2.8,6.5-.3.6-2.9,2.1-4.6,2.3a2.57,2.57,0,0,0,2.4.3c.6-.1.6,0,.6.3s-.1.4-.2.7c-1,3-4.6,5.5-5.3,5.9C52,41,54.8,34.9,51.4,35c-4.7.1-7.6,7.9-10,9.7-1.1-1.9,2.7-7.1,4.6-11.1H44.2a10.42,10.42,0,0,0-3.3,1,52.79,52.79,0,0,0-3.1,7.8c-.2,1.1-.1,5,1.7,5,3.5-.1,7.8-8.1,9.2-9.7,0,2.4-1.6,7.1,2,7,2.1-.1,4.6-2.7,6.4-3.7-.2,2.2-.7,6.4,2.2,7.7-.3-1.1.5-5.2.8-6.5a26.13,26.13,0,0,1,3.2-7.5c.6-.6,2.3-1.3,4.6-2.6a16.28,16.28,0,0,1-.7,3c-.8,3.4-2.7,9.2-2.7,12.2v.9l.9-.3c3.7-1.1,5.3-7.1,7.7-7.4.9,1.5,1.2,6.3,3.7,6.2h1.4C78.8,43.9,77.7,40.3,76.5,37.8Z" transform="translate(-0.77 -0.5)"/><path class="cls-5" d="M15.2,90.8l-.5,3.3c-.4,2.7-.5,3.8-.6,4.8H11.8c.1-.9.4-2.2.7-4.7l.4-3.3c.3-2.5.5-3.7.6-4.5h2.4C15.7,87.1,15.6,88.3,15.2,90.8Z" transform="translate(-0.77 -0.5)"/><path class="cls-5" d="M25.6,93.7l-.4,2.4c-.1,1-.3,1.9-.4,2.7H22.6l.7-4.7a6.6,6.6,0,0,0,.1-1.4c0-.9-.4-1.3-.9-1.3s-1.3.3-2.6,2.1c0,0-.6,4.8-.7,5.4H16.9c.2-1.4.5-3.1.7-4.6a16,16,0,0,0,.3-4.4l2.3-.2a14.77,14.77,0,0,1-.1,2.1c1.6-2,2.6-2.3,3.7-2.3s2,.7,2,2.4A11,11,0,0,1,25.6,93.7Z" transform="translate(-0.77 -0.5)"/><path class="cls-5" d="M32.9,91.8a2.84,2.84,0,0,0-1.7-.7,1.17,1.17,0,0,0-1.3,1.1c0,.7.3.9,1.2,1.5,1.1.7,1.7,1.4,1.7,2.4,0,1.4-1.1,2.8-3.6,2.8a4.65,4.65,0,0,1-2.3-.6l.3-1.9a2.72,2.72,0,0,0,2.1.9c.8,0,1.3-.4,1.3-1.1,0-.5-.3-.9-1.1-1.5-1.2-.9-1.7-1.5-1.7-2.6,0-1.5,1.2-2.9,3.5-2.9a5.22,5.22,0,0,1,2.1.4Z" transform="translate(-0.77 -0.5)"/><path class="cls-5" d="M37.9,99.1a4.71,4.71,0,0,1-1.6-.4c-.2,1.5-.5,3.1-.7,4.5H33.3c.3-1.6.6-3.6,1.2-7.1a42,42,0,0,0,.7-6.2l2.3-.1c0,.2-.1,1.3-.2,1.9,1.3-1.6,2.3-2.1,3.4-2.1,1.5,0,2.4,1.1,2.4,3.4C43.1,95.7,41,99.1,37.9,99.1Zm1.8-7.7c-.8,0-1.6.6-2.6,2L36.6,97a2.11,2.11,0,0,0,1.3.5c1.8,0,3-2.3,3-4.2C40.9,91.9,40.4,91.4,39.7,91.4Z" transform="translate(-0.77 -0.5)"/><path class="cls-5" d="M47.2,94.2c-.3,2.1-.6,4.1-.6,4.7H44.3c.1-.7.3-1.8.7-4.3s.5-3.9.6-4.8l2.3-.1C47.7,91.1,47.5,92.2,47.2,94.2Zm-.1-6.3c-.7,0-1.3-.3-1.3-1A1.16,1.16,0,0,1,47,85.7h.2c.6,0,1.2.3,1.2,1a1.18,1.18,0,0,1-1.3,1.2Z" transform="translate(-0.77 -0.5)"/><path class="cls-5" d="M55.3,91.9a1.61,1.61,0,0,0-.9-.3c-.8,0-1.6.7-2.4,2.5l-.3,2.1a26.6,26.6,0,0,0-.3,2.8H49.2c.2-1.2.4-2.5.7-4.4a24.18,24.18,0,0,0,.4-4.7l2.2-.1a18,18,0,0,1-.2,2.2c.9-1.6,1.8-2.3,2.8-2.3a2.35,2.35,0,0,1,.8.2Z" transform="translate(-0.77 -0.5)"/><path class="cls-5" d="M58.9,94.2c-.3,2.1-.6,4.1-.6,4.7H56c.1-.7.3-1.8.7-4.3s.5-3.9.6-4.8l2.3-.1A35.9,35.9,0,0,0,58.9,94.2Zm-.1-6.3c-.7,0-1.3-.3-1.3-1a1.16,1.16,0,0,1,1.2-1.2h.2c.6,0,1.2.3,1.2,1a1.24,1.24,0,0,1-1.3,1.2Z" transform="translate(-0.77 -0.5)"/><path class="cls-5" d="M62.9,95.2v.5a1.5,1.5,0,0,0,1.6,1.7,5.67,5.67,0,0,0,3.1-1.5l.1,1.7A6.52,6.52,0,0,1,64,99c-2.1,0-3.2-1.2-3.2-3.5,0-2.8,2.1-6,5.4-6,1.8,0,2.6.9,2.6,2C68.7,93.4,67.2,94.7,62.9,95.2Zm2.8-4.1c-1.1,0-2.3,1.2-2.6,2.7,2.5-.3,3.7-1,3.7-1.9A1,1,0,0,0,65.7,91.1Z" transform="translate(-0.77 -0.5)"/><path class="cls-5" d="M75.7,91.9a1.61,1.61,0,0,0-.9-.3c-.8,0-1.6.7-2.4,2.5l-.3,2.1a26.6,26.6,0,0,0-.3,2.8H69.6c.2-1.2.4-2.5.7-4.4a24.18,24.18,0,0,0,.4-4.7l2.2-.1a18,18,0,0,1-.2,2.2c.9-1.6,1.8-2.3,2.8-2.3a1.2,1.2,0,0,1,.8.2Z" transform="translate(-0.77 -0.5)"/><path class="cls-5" d="M78,95.2v.5a1.5,1.5,0,0,0,1.6,1.7,5.67,5.67,0,0,0,3.1-1.5l.1,1.7A6.52,6.52,0,0,1,79.1,99c-2.1,0-3.2-1.2-3.2-3.5,0-2.8,2.1-6,5.4-6,1.8,0,2.6.9,2.6,2C83.8,93.4,82.3,94.7,78,95.2Zm2.7-4.1c-1.1,0-2.3,1.2-2.6,2.7,2.5-.3,3.7-1,3.7-1.9C81.8,91.2,81.1,91.1,80.7,91.1Z" transform="translate(-0.77 -0.5)"/><path class="cls-5" d="M93.3,93.7l-.4,2.4c-.1,1-.3,1.9-.4,2.7H90.3l.7-4.7a6.6,6.6,0,0,0,.1-1.4c0-.9-.4-1.3-.9-1.3s-1.3.3-2.6,2.1c0,0-.7,4.8-.7,5.4H84.6c.2-1.4.5-3.1.7-4.6a16,16,0,0,0,.3-4.4l2.3-.2a14.77,14.77,0,0,1-.1,2.1c1.6-2,2.6-2.3,3.7-2.3s2,.7,2,2.4A11,11,0,0,1,93.3,93.7Z" transform="translate(-0.77 -0.5)"/><path class="cls-5" d="M103.6,91.4l-.5,3.6a24.52,24.52,0,0,0-.2,2.7,4.1,4.1,0,0,0,.1,1.1l-2.1.2a2.77,2.77,0,0,1-.1-.9,7.57,7.57,0,0,1,.1-1.5c-1.3,1.9-2.4,2.4-3.5,2.4-1.3,0-2.3-1-2.3-3.1,0-3.7,2.7-6.4,5.2-6.4a3.65,3.65,0,0,1,1.5.3c.3-2.4.5-3.9.5-4.4l2.3-.1A57.86,57.86,0,0,0,103.6,91.4Zm-3.5-.2c-1.5,0-3,2-3,4.2,0,1.2.4,1.8,1,1.8s1.4-.5,2.7-2.4c.1-.7.4-2.6.5-3.3A2.13,2.13,0,0,0,100.1,91.2Z" transform="translate(-0.77 -0.5)"/><path class="cls-5" d="M107.1,95.2v.5a1.5,1.5,0,0,0,1.6,1.7,5.67,5.67,0,0,0,3.1-1.5l.1,1.7a6.52,6.52,0,0,1-3.7,1.4c-2.1,0-3.2-1.2-3.2-3.5,0-2.8,2.1-6,5.4-6,1.8,0,2.6.9,2.6,2C112.9,93.4,111.4,94.7,107.1,95.2Zm2.8-4.1c-1.1,0-2.3,1.2-2.6,2.7,2.5-.3,3.7-1,3.7-1.9A1,1,0,0,0,109.9,91.1Z" transform="translate(-0.77 -0.5)"/><path class="cls-5" d="M127.3,91.9c-1.7,3.3-2.8,5.5-3.6,7.1h-2.2c-.3-1.5-.7-3.4-1.5-6.7-.6-2.6-1.1-4.8-1.3-6h2.5l1.7,9.3a4.1,4.1,0,0,1,.1,1.1h0a3.58,3.58,0,0,1,.4-1.1l4.4-9.3h2.5C129.6,87.5,128.7,89.2,127.3,91.9Z" transform="translate(-0.77 -0.5)"/><path class="cls-5" d="M132.8,94.2c-.3,2.1-.6,4.1-.6,4.7h-2.3c.1-.7.3-1.8.7-4.3s.5-3.9.6-4.8l2.3-.1C133.3,91.1,133.1,92.2,132.8,94.2Zm-.1-6.3c-.7,0-1.3-.3-1.3-1a1.16,1.16,0,0,1,1.2-1.2h.2c.6,0,1.2.3,1.2,1a1.18,1.18,0,0,1-1.3,1.2Z" transform="translate(-0.77 -0.5)"/><path class="cls-5" d="M136.8,95.2v.5a1.5,1.5,0,0,0,1.6,1.7,5.67,5.67,0,0,0,3.1-1.5l.1,1.7a6.52,6.52,0,0,1-3.7,1.4c-2.1,0-3.2-1.2-3.2-3.5,0-2.8,2.1-6,5.4-6,1.8,0,2.6.9,2.6,2C142.6,93.4,141.1,94.7,136.8,95.2Zm2.8-4.1c-1.1,0-2.3,1.2-2.6,2.7,2.5-.3,3.7-1,3.7-1.9A1,1,0,0,0,139.6,91.1Z" transform="translate(-0.77 -0.5)"/><path class="cls-5" d="M146.8,91.8c-.5,3.7-.9,6.4-.9,7.1h-2.3c.1-.7.4-2.7,1-6.6.4-3.2.8-5.4.9-6.8h2.3A49,49,0,0,0,146.8,91.8Z" transform="translate(-0.77 -0.5)"/><path class="cls-5" d="M155.1,87.3a3.58,3.58,0,0,0-1.1-.4c-.7,0-1.3.4-1.6,1.5a5.07,5.07,0,0,0-.2,1.3h2.1l-.3,1.5h-2l-.7,4.8c-.7,4.7-1.5,6.3-2.1,7l-2.1.2c.7-1,1.4-2.6,2-7l.7-5h-.9l.4-1.5h.7c.1-.6.2-1,.3-1.5a3.58,3.58,0,0,1,3.7-3,4,4,0,0,1,1.5.3Z" transform="translate(-0.77 -0.5)"/><path class="cls-5" d="M162.9,98.6a4.19,4.19,0,0,1-1.6.4c-1.1,0-1.7-.6-1.7-2.3-1.3,1.7-2.3,2.3-3.4,2.3-1.5,0-2.4-1.1-2.4-3,0-3.5,2.4-6.5,5.6-6.5a4.67,4.67,0,0,1,1.7.3,7.72,7.72,0,0,0,1.5-.2,49.17,49.17,0,0,0-1,6.7c0,.9.3,1.1.7,1.1a1.42,1.42,0,0,0,.6-.2Zm-3.8-7.3c-1.6,0-3,2-3,4.2,0,1.2.4,1.7,1,1.7s1.5-.7,2.6-2.2c.1-.9.4-2.7.6-3.5h0a1.72,1.72,0,0,0-1.2-.2Z" transform="translate(-0.77 -0.5)"/><path class="cls-5" d="M167.5,91.8c-.5,3.7-.9,6.4-.9,7.1h-2.3c.1-.7.4-2.7,1-6.6.4-3.2.8-5.4.9-6.8h2.3C168.2,87.1,168,88.5,167.5,91.8Z" transform="translate(-0.77 -0.5)"/><path class="cls-5" d="M174.6,91.2h-2.1c-.1,1-.3,2-.5,3.1l-.3,2.1c0,.7.2.9.7.9a3.51,3.51,0,0,0,1.4-.6l-.1,1.6a6.31,6.31,0,0,1-2.3.8c-1.3,0-1.9-.7-1.9-2a8.33,8.33,0,0,1,.3-2.2c.2-1,.4-2.4.6-3.6H169l.4-1.4h1.1l.3-1.8,2.2-.8-.4,2.6h2.3Z" transform="translate(-0.77 -0.5)"/></g></svg>