<?xml version="1.0" encoding="utf-8"?>
<!-- Generator: Adobe Illustrator 24.0.2, SVG Export Plug-In . SVG Version: 6.00 Build 0)  -->
<svg version="1.1" id="Ebene_1" xmlns="http://www.w3.org/2000/svg" xmlns:xlink="http://www.w3.org/1999/xlink" x="0px" y="0px"
	 viewBox="0 0 207.2 103.3" style="enable-background:new 0 0 207.2 103.3;" xml:space="preserve">
<style type="text/css">
	.st0{fill:#008C3C;}
	.st1{fill-rule:evenodd;clip-rule:evenodd;fill:#FFCC00;}
	.st2{fill:#153D8A;}
	.st3{fill:#FFFFFF;}
	.st4{fill:#E30613;}
	.st5{fill-rule:evenodd;clip-rule:evenodd;fill:#0D181C;}
	.st6{fill-rule:evenodd;clip-rule:evenodd;fill:#FFFFFF;}
</style>
<g id="Ebene_1_1_">
	<g>
		<g>
			<polygon class="st0" points="154.6,1 152.6,1 131.1,1 152.6,14.5 191.7,39 152.6,63.5 131.1,76.9 152.6,76.9 154.6,76.9 
				205.9,43.7 205.9,34.2 			"/>
			<polygon class="st1" points="178.6,39 117,76.9 131.1,76.9 191.7,39 131.1,1 117,1 			"/>
			<polygon class="st2" points="205.9,76.9 205.9,52 167.5,76.9 			"/>
			<polygon class="st3" points="154.6,76.9 167.5,76.9 205.9,52 205.9,43.7 			"/>
			<polygon class="st4" points="167.5,1 205.9,26 205.9,1 			"/>
			<polygon class="st3" points="154.6,1 205.9,34.2 205.9,26 167.5,1 			"/>
			<polygon class="st5" points="1.3,76.9 117.1,76.9 178.7,39 117.1,1 1.3,1 			"/>
			<path class="st6" d="M127.1,35.2c-1.1-0.3-2.2-0.2-3.3,0.2c-1.4,0.6-2.6,1.5-3.4,2.7c0.1-1,0.5-1.9,1-2.7
				c-0.8,0.1-1.5,0.3-2.2,0.5c-0.1,0.1-0.2,0.1-0.3,0.2c-0.3,0.2-0.4,0.6-0.5,0.9l-2,8.9c0.4,0.3,0.8,0.6,1.3,0.7
				c0.8-0.1,1.6-0.3,2.4-0.6c-0.1-0.3,0-0.7,0.1-1c0.2-0.6,0.4-1.3,0.5-2c0.8-3.3,3.2-5.9,6.4-7.1C127.5,35.5,127.6,35.2,127.1,35.2
				z M131.5,31.9l0.1,0.1c0.8-0.1,1.6-0.3,2.4-0.6c0.5-0.2,0.9-0.7,1.1-1.2c0.1-0.5,0-1.1-0.2-1.5c-0.1-0.2-0.4-0.3-0.6-0.3
				c-0.2,0-0.3,0.1-0.5,0.2c-0.5,0.2-1,0.4-1.5,0.6c-1,0.3-1.5,1-1.4,1.2c0.2,0.4,0.3,0.8,0.4,1.2C131.4,31.7,131.4,31.8,131.5,31.9
				z M96.7,35.7c2.5-5.4,5.1-10.8,6-12.2c0,0,0.3-0.3,0.3,0.2c0.1,3.3,0.3,6.7,0.8,10C101.4,34.3,99,35,96.7,35.7z M123.6,30.1
				c0.8-0.6,1.3-1.5,1.4-2.5c-1.4,0.9-0.7-0.2-6,1.5c-0.6,0.2-1.8,0.6-3.5,1.1l0.1-0.8c0.7-5.5,4.4-6.9,7-8.2c0.6-0.3,1.1-2.2-2-1.6
				c-4.5,1-6.8,5.8-7.4,7.8l-0.4,1.3c-0.2,0.8-0.4,1.6-0.6,2.4c-1.5,0.4-3.2,0.9-4.9,1.4c-0.8-8.1-0.7-12.3-2-12.8
				c-0.4-0.1-2.4-0.8-3.5-0.1c-1.2,0.7-6.1,9.6-10.2,17.5c-2.3,0.6-4.6,1.4-6.8,2.2c-1,0.5,1.7,2.4,2.9,2.6c0.5-0.1,1.1-0.2,1.6-0.4
				c-2,3.9-3.5,7.1-3.8,7.9c1-0.2,3,0.8,4.5-0.1c1-0.7,1.7-1.7,2.1-2.9c0.6-1.5,1.6-3.9,2.8-6.6c2.8-0.9,6.2-2,9.5-3.1
				c0.9,4.5,1.5,8.9,4.1,11.3c0.3,0.2,1.1,0.7,0.9,0c-1.2-4.3-1.4-8.6-1.8-12.4l4-1.3c-1.2,7.1,0.2,13.8,1.8,13.8
				c0.7,0,0.7-1.1,0.9-2c0.1-0.7,0.2-3.9,0.3-4.6l0.8-8.3c3-1,5.1-1.7,5.1-1.7C121.8,30.9,123.1,30.4,123.6,30.1z M149.4,34.1
				c-1.3,0.1-2.8,1.4-3.9,3.1l-0.1,0.1c-0.2,0.3-0.4,0.6-0.6,0.9c-2,2.8-4.6,6.4-6.4,6.4c-0.7,0-1.3-1.4-0.7-3.1
				c1.9-5.5,6.7-6.5,6.3-7.2c-2.4-0.5-5,0.2-6.9,1.8c-3.5,2.5-7.4,7.4-7.6,7.1c-0.9-1.5,2.6-5.7,4.2-8.8c0,0-0.8,0-1.4,0
				c-1,0.1-2.1,0.3-3,0.8c0,0-3,4.3-3.3,6.2c-0.4,2.2,0.1,4.6,1.4,4.6c2,0,4.6-3.5,6.6-6.1c-0.2,0.4-0.3,0.8-0.4,1.2
				c-0.7,2.7-0.1,5.9,3.8,5.9c1.8,0,3.9-2.4,5.7-4.8c-0.4,1.9,0,3.4,1.7,3.3c1.9-0.1,3.6-1,4.8-2.5c1,3,3.2,2,3.2,2
				c-0.5-1-0.8-2.1-0.7-3.2c0.2-2.1,0.5-4.2,1-6.3c0.1-0.4,0.2-0.8,0.3-1.2C152.1,34.1,150.7,34,149.4,34.1L149.4,34.1z M149,40.7
				c-0.7,1.1-1.7,2.1-2.8,2.8c-0.2-1.1,1.3-4.5,2.3-5.9c0.6-0.9,1-1.1,1.3-1.3C150.9,36.5,149.6,39.8,149,40.7L149,40.7z M15.4,37.2
				c2.9-0.1,6.4-1.9,6.1,2c-0.3,1.5-1,2.9-2,4.1c-1.3,1.7-5.6,7.3-5.9,8.1c-0.3,0.8,0.5,0.5,0.8,0.9c6.1-4.4,10.2-10.4,15.4-14.5
				c-0.3,1.7-3.3,7.8,1.3,7.6c2.8-0.2,5.2-2.2,5.9-4.9c0.5-1.9,0.7-3.8,0.6-5.7c-2.5,0.3-3.2-0.6-4.5-0.5c-2.6,0.1-4.9,3.8-7.9,6.8
				c0.5-0.8,0.8-1.7,0.9-2.7c0.2-3.4-4.1-3.8-6.1-3.7c-1.4,0.2-2.7,0.2-4.1,0.1c-0.2-0.1,0-0.3,0.3-0.9c1-2.4,8.5-12,9.7-13.2
				c0.2-0.1-0.4-0.5-0.8-0.7c-1.4-1-3.3-1-4.7,0.1c-4.1,4.2-7.5,8.2-8.7,11.3C10.2,34.9,10.8,37.4,15.4,37.2z M32.9,38.6
				c0.3-0.8,0.6-0.7,0.8-1.1c1,0.3,0.6,3.2,0.3,4c-0.4,0.9-1,1.7-1.8,2.4C31.8,42.8,32.4,39.8,32.9,38.6z M76.5,37.8
				c-1.3-2.5-6.9,2.5-7.5,3.2c0.6-2.5,1.4-5.1,2.2-7.2c1-3.4,2.4-6.8,4-10c0.4-0.8,0.5-1.7-0.2-2.1c-0.2-0.1-0.4-0.2-0.6-0.2
				c-0.8,0-1.5,0.5-2.3,0.6l-3.5,8.3c-2,0.6-4.3,1.3-4.9,1.3c0.2-1.5,3.9-5.5,0.4-5c-0.8,0.1-0.5,0.4-1.5,0.4
				c-1.3,1.8-1.9,4.3-2.8,6.5c-0.3,0.6-2.9,2.1-4.6,2.3c0.7,0.5,1.6,0.6,2.4,0.3c0.6-0.1,0.6,0,0.6,0.3c-0.1,0.3-0.1,0.4-0.2,0.7
				c-1,3-4.6,5.5-5.3,5.9C52,41,54.8,34.9,51.4,35c-4.7,0.1-7.6,7.9-10,9.7c-1.1-1.9,2.7-7.1,4.6-11.1h-1.8c-1.1,0.1-2.2,0.5-3.3,1
				c-1.2,2.5-2.3,5.1-3.1,7.8c-0.2,1.1-0.1,5,1.7,5c3.5-0.1,7.8-8.1,9.2-9.7c0,2.4-1.6,7.1,2,7c2.1-0.1,4.6-2.7,6.4-3.7
				c-0.2,2.2-0.7,6.4,2.2,7.7c-0.3-1.1,0.5-5.2,0.8-6.5c0.7-2.6,1.7-5.2,3.2-7.5c0.6-0.6,2.3-1.3,4.6-2.6c-0.1,1-0.4,2-0.7,3
				c-0.8,3.4-2.7,9.2-2.7,12.2v0.9l0.9-0.3c3.7-1.1,5.3-7.1,7.7-7.4c0.9,1.5,1.2,6.3,3.7,6.2h1.4C78.8,43.9,77.7,40.3,76.5,37.8z"/>
		</g>
		<g>
			<path class="st3" d="M15.2,90.8l-0.5,3.3c-0.4,2.7-0.5,3.8-0.6,4.8h-2.3c0.1-0.9,0.4-2.2,0.7-4.7l0.4-3.3
				c0.3-2.5,0.5-3.7,0.6-4.5h2.4C15.7,87.1,15.6,88.3,15.2,90.8z"/>
			<path class="st3" d="M25.6,93.7l-0.4,2.4c-0.1,1-0.3,1.9-0.4,2.7h-2.2l0.7-4.7c0.1-0.5,0.1-0.9,0.1-1.4c0-0.9-0.4-1.3-0.9-1.3
				c-0.6,0-1.3,0.3-2.6,2.1c0,0-0.6,4.8-0.7,5.4h-2.3c0.2-1.4,0.5-3.1,0.7-4.6c0.3-1.4,0.4-2.9,0.3-4.4l2.3-0.2c0,0.7,0,1.4-0.1,2.1
				c1.6-2,2.6-2.3,3.7-2.3c1.2,0,2,0.7,2,2.4C25.8,92.5,25.7,93.1,25.6,93.7z"/>
			<path class="st3" d="M32.9,91.8c-0.5-0.4-1.1-0.7-1.7-0.7c-0.9,0-1.3,0.6-1.3,1.1c0,0.7,0.3,0.9,1.2,1.5c1.1,0.7,1.7,1.4,1.7,2.4
				c0,1.4-1.1,2.8-3.6,2.8c-0.8,0-1.6-0.2-2.3-0.6l0.3-1.9c0.5,0.6,1.3,0.9,2.1,0.9c0.8,0,1.3-0.4,1.3-1.1c0-0.5-0.3-0.9-1.1-1.5
				c-1.2-0.9-1.7-1.5-1.7-2.6c0-1.5,1.2-2.9,3.5-2.9c0.7,0,1.4,0.1,2.1,0.4L32.9,91.8z"/>
			<path class="st3" d="M37.9,99.1c-0.5,0-1.1-0.2-1.6-0.4c-0.2,1.5-0.5,3.1-0.7,4.5h-2.3c0.3-1.6,0.6-3.6,1.2-7.1
				c0.4-2,0.6-4.1,0.7-6.2l2.3-0.1c0,0.2-0.1,1.3-0.2,1.9c1.3-1.6,2.3-2.1,3.4-2.1c1.5,0,2.4,1.1,2.4,3.4
				C43.1,95.7,41,99.1,37.9,99.1z M39.7,91.4c-0.8,0-1.6,0.6-2.6,2L36.6,97c0.4,0.3,0.8,0.5,1.3,0.5c1.8,0,3-2.3,3-4.2
				C40.9,91.9,40.4,91.4,39.7,91.4z"/>
			<path class="st3" d="M47.2,94.2c-0.3,2.1-0.6,4.1-0.6,4.7h-2.3c0.1-0.7,0.3-1.8,0.7-4.3c0.4-2.6,0.5-3.9,0.6-4.8l2.3-0.1
				C47.7,91.1,47.5,92.2,47.2,94.2z M47.1,87.9c-0.7,0-1.3-0.3-1.3-1s0.5-1.2,1.2-1.2c0.1,0,0.1,0,0.2,0c0.6,0,1.2,0.3,1.2,1
				S47.9,87.9,47.1,87.9C47.2,87.9,47.1,87.9,47.1,87.9z"/>
			<path class="st3" d="M55.3,91.9c-0.3-0.2-0.6-0.3-0.9-0.3c-0.8,0-1.6,0.7-2.4,2.5l-0.3,2.1c-0.1,0.9-0.3,1.9-0.3,2.8h-2.2
				c0.2-1.2,0.4-2.5,0.7-4.4c0.3-1.5,0.4-3.1,0.4-4.7l2.2-0.1c0,0.7-0.1,1.4-0.2,2.2c0.9-1.6,1.8-2.3,2.8-2.3c0.3,0,0.5,0.1,0.8,0.2
				L55.3,91.9z"/>
			<path class="st3" d="M58.9,94.2c-0.3,2.1-0.6,4.1-0.6,4.7H56c0.1-0.7,0.3-1.8,0.7-4.3c0.4-2.6,0.5-3.9,0.6-4.8l2.3-0.1
				C59.3,91.1,59.1,92.2,58.9,94.2z M58.8,87.9c-0.7,0-1.3-0.3-1.3-1s0.5-1.2,1.2-1.2c0.1,0,0.1,0,0.2,0c0.6,0,1.2,0.3,1.2,1
				S59.5,87.9,58.8,87.9L58.8,87.9z"/>
			<path class="st3" d="M62.9,95.2c0,0.2,0,0.3,0,0.5c0,0.9,0.4,1.7,1.6,1.7c1.2-0.2,2.3-0.7,3.1-1.5l0.1,1.7
				c-1.1,0.9-2.4,1.3-3.7,1.4c-2.1,0-3.2-1.2-3.2-3.5c0-2.8,2.1-6,5.4-6c1.8,0,2.6,0.9,2.6,2C68.7,93.4,67.2,94.7,62.9,95.2z
				 M65.7,91.1c-1.1,0-2.3,1.2-2.6,2.7c2.5-0.3,3.7-1,3.7-1.9C66.7,91.2,66,91.1,65.7,91.1z"/>
			<path class="st3" d="M75.7,91.9c-0.3-0.2-0.6-0.3-0.9-0.3c-0.8,0-1.6,0.7-2.4,2.5l-0.3,2.1c-0.1,0.9-0.3,1.9-0.3,2.8h-2.2
				c0.2-1.2,0.4-2.5,0.7-4.4c0.3-1.5,0.4-3.1,0.4-4.7l2.2-0.1c0,0.7-0.1,1.4-0.2,2.2c0.9-1.6,1.8-2.3,2.8-2.3c0.3,0,0.5,0,0.8,0.2
				L75.7,91.9z"/>
			<path class="st3" d="M78,95.2c0,0.2,0,0.3,0,0.5c0,0.9,0.4,1.7,1.6,1.7c1.2-0.2,2.3-0.7,3.1-1.5l0.1,1.7
				c-1.1,0.9-2.4,1.3-3.7,1.4c-2.1,0-3.2-1.2-3.2-3.5c0-2.8,2.1-6,5.4-6c1.8,0,2.6,0.9,2.6,2C83.8,93.4,82.3,94.7,78,95.2z
				 M80.7,91.1c-1.1,0-2.3,1.2-2.6,2.7c2.5-0.3,3.7-1,3.7-1.9C81.8,91.2,81.1,91.1,80.7,91.1z"/>
			<path class="st3" d="M93.3,93.7l-0.4,2.4c-0.1,1-0.3,1.9-0.4,2.7h-2.2l0.7-4.7c0.1-0.5,0.1-0.9,0.1-1.4c0-0.9-0.4-1.3-0.9-1.3
				c-0.6,0-1.3,0.3-2.6,2.1c0,0-0.7,4.8-0.7,5.4h-2.3c0.2-1.4,0.5-3.1,0.7-4.6c0.3-1.4,0.4-2.9,0.3-4.4l2.3-0.2c0,0.7,0,1.4-0.1,2.1
				c1.6-2,2.6-2.3,3.7-2.3c1.2,0,2,0.7,2,2.4C93.5,92.5,93.4,93.1,93.3,93.7z"/>
			<path class="st3" d="M103.6,91.4l-0.5,3.6c-0.1,0.9-0.2,1.8-0.2,2.7c0,0.4,0,0.7,0.1,1.1l-2.1,0.2c-0.1-0.3-0.1-0.6-0.1-0.9
				c0-0.5,0-1,0.1-1.5c-1.3,1.9-2.4,2.4-3.5,2.4c-1.3,0-2.3-1-2.3-3.1c0-3.7,2.7-6.4,5.2-6.4c0.5,0,1.1,0.1,1.5,0.3
				c0.3-2.4,0.5-3.9,0.5-4.4l2.3-0.1C104.3,86.5,104,88.3,103.6,91.4z M100.1,91.2c-1.5,0-3,2-3,4.2c0,1.2,0.4,1.8,1,1.8
				c0.7,0,1.4-0.5,2.7-2.4c0.1-0.7,0.4-2.6,0.5-3.3C101,91.3,100.6,91.2,100.1,91.2z"/>
			<path class="st3" d="M107.1,95.2c0,0.2,0,0.3,0,0.5c0,0.9,0.4,1.7,1.6,1.7c1.2-0.2,2.3-0.7,3.1-1.5l0.1,1.7
				c-1.1,0.9-2.4,1.3-3.7,1.4c-2.1,0-3.2-1.2-3.2-3.5c0-2.8,2.1-6,5.4-6c1.8,0,2.6,0.9,2.6,2C112.9,93.4,111.4,94.7,107.1,95.2z
				 M109.9,91.1c-1.1,0-2.3,1.2-2.6,2.7c2.5-0.3,3.7-1,3.7-1.9C110.9,91.2,110.3,91.1,109.9,91.1z"/>
			<path class="st3" d="M127.3,91.9c-1.7,3.3-2.8,5.5-3.6,7.1h-2.2c-0.3-1.5-0.7-3.4-1.5-6.7c-0.6-2.6-1.1-4.8-1.3-6h2.5l1.7,9.3
				c0.1,0.4,0.1,0.7,0.1,1.1l0,0c0.1-0.4,0.2-0.8,0.4-1.1l4.4-9.3h2.5C129.6,87.5,128.7,89.2,127.3,91.9z"/>
			<path class="st3" d="M132.8,94.2c-0.3,2.1-0.6,4.1-0.6,4.7h-2.3c0.1-0.7,0.3-1.8,0.7-4.3c0.4-2.6,0.5-3.9,0.6-4.8l2.3-0.1
				C133.3,91.1,133.1,92.2,132.8,94.2z M132.7,87.9c-0.7,0-1.3-0.3-1.3-1s0.5-1.2,1.2-1.2c0.1,0,0.1,0,0.2,0c0.6,0,1.2,0.3,1.2,1
				C134,87.4,133.5,87.9,132.7,87.9C132.8,87.9,132.7,87.9,132.7,87.9L132.7,87.9z"/>
			<path class="st3" d="M136.8,95.2c0,0.2,0,0.3,0,0.5c0,0.9,0.4,1.7,1.6,1.7c1.2-0.2,2.3-0.7,3.1-1.5l0.1,1.7
				c-1.1,0.9-2.4,1.3-3.7,1.4c-2.1,0-3.2-1.2-3.2-3.5c0-2.8,2.1-6,5.4-6c1.8,0,2.6,0.9,2.6,2C142.6,93.4,141.1,94.7,136.8,95.2z
				 M139.6,91.1c-1.1,0-2.3,1.2-2.6,2.7c2.5-0.3,3.7-1,3.7-1.9C140.6,91.2,140,91.1,139.6,91.1z"/>
			<path class="st3" d="M146.8,91.8c-0.5,3.7-0.9,6.4-0.9,7.1h-2.3c0.1-0.7,0.4-2.7,1-6.6c0.4-3.2,0.8-5.4,0.9-6.8h2.3
				C147.4,87.1,147.2,88.5,146.8,91.8z"/>
			<path class="st3" d="M155.1,87.3c-0.3-0.2-0.7-0.3-1.1-0.4c-0.7,0-1.3,0.4-1.6,1.5c-0.1,0.4-0.2,0.8-0.2,1.3h2.1l-0.3,1.5h-2
				l-0.7,4.8c-0.7,4.7-1.5,6.3-2.1,7l-2.1,0.2c0.7-1,1.4-2.6,2-7l0.7-5h-0.9l0.4-1.5h0.7c0.1-0.6,0.2-1,0.3-1.5
				c0.3-1.8,1.9-3.1,3.7-3c0.5,0,1,0.1,1.5,0.3L155.1,87.3z"/>
			<path class="st3" d="M162.9,98.6c-0.5,0.2-1,0.4-1.6,0.4c-1.1,0-1.7-0.6-1.7-2.3c-1.3,1.7-2.3,2.3-3.4,2.3c-1.5,0-2.4-1.1-2.4-3
				c0-3.5,2.4-6.5,5.6-6.5c0.6,0,1.2,0.1,1.7,0.3c0.4,0,1.1-0.1,1.5-0.2c-0.5,2.2-0.8,4.4-1,6.7c0,0.9,0.3,1.1,0.7,1.1
				c0.2,0,0.4-0.1,0.6-0.2L162.9,98.6z M159.1,91.3c-1.6,0-3,2-3,4.2c0,1.2,0.4,1.7,1,1.7c0.7,0,1.5-0.7,2.6-2.2
				c0.1-0.9,0.4-2.7,0.6-3.5l0,0C159.9,91.3,159.5,91.2,159.1,91.3L159.1,91.3z"/>
			<path class="st3" d="M167.5,91.8c-0.5,3.7-0.9,6.4-0.9,7.1h-2.3c0.1-0.7,0.4-2.7,1-6.6c0.4-3.2,0.8-5.4,0.9-6.8h2.3
				C168.2,87.1,168,88.5,167.5,91.8z"/>
			<path class="st3" d="M174.6,91.2h-2.1c-0.1,1-0.3,2-0.5,3.1c-0.1,0.7-0.2,1.4-0.3,2.1c0,0.7,0.2,0.9,0.7,0.9
				c0.5-0.1,1-0.3,1.4-0.6l-0.1,1.6c-0.7,0.4-1.5,0.7-2.3,0.8c-1.3,0-1.9-0.7-1.9-2c0-0.7,0.1-1.5,0.3-2.2c0.2-1,0.4-2.4,0.6-3.6
				H169l0.4-1.4h1.1l0.3-1.8l2.2-0.8l-0.4,2.6h2.3L174.6,91.2z"/>
		</g>
	</g>
</g>
</svg>
