<svg id="Ebene_1" data-name="Ebene 1" xmlns="http://www.w3.org/2000/svg" viewBox="0 0 206.8105 103.29"><title>partner</title><rect x="0.5" y="0.5" width="205.8105" height="77.1387" fill="#fff" stroke="#fff" stroke-miterlimit="3.8637"/><polygon points="191.469 39.071 130.92 77.015 154.359 77.015 205.684 43.83 205.684 34.308 154.359 1.126 130.92 1.126 191.469 39.071" fill="#008c3c" fill-rule="evenodd"/><polygon points="178.396 39.071 116.789 77.015 130.92 77.015 191.469 39.071 130.92 1.126 116.789 1.124 178.396 39.071" fill="#fc0" fill-rule="evenodd"/><polygon points="205.684 77.015 205.684 52.06 167.279 77.015 205.684 77.015" fill="#153d8a" fill-rule="evenodd"/><polygon points="205.684 1.124 167.279 1.124 205.684 26.079 205.684 1.124" fill="#e30613" fill-rule="evenodd"/><polygon points="1.125 77.015 116.924 77.015 178.531 39.071 116.924 1.124 1.125 1.124 1.125 77.015" fill="#0d181c" fill-rule="evenodd"/><path d="M127.7016,35.6927a5.191,5.191,0,0,0-3.2715.18,7.6476,7.6476,0,0,0-3.418,2.7207A6.6433,6.6433,0,0,1,122,35.8762a9.77,9.77,0,0,0-2.2285.5293c-.082.0821-.166.1329-.26.2286a1.7442,1.7442,0,0,0-.5.9121L117,46.4114a2.56,2.56,0,0,0,1.3027.6621,10.24,10.24,0,0,0,2.3575-.6084,2.1593,2.1593,0,0,1,.0644-1.0107,12.4236,12.4236,0,0,0,.4531-1.9766,10.2264,10.2264,0,0,1,6.3672-7.09C128.0766,35.9612,128.1293,35.7259,127.7016,35.6927Zm4.3945-3.2764a.33.33,0,0,0,.1406.0957,16.23,16.23,0,0,0,2.3516-.5967,2.0447,2.0447,0,0,0,1.0586-1.1933,2.9174,2.9174,0,0,0-.1836-1.5459.6047.6047,0,0,0-.58-.2706.59.59,0,0,0-.4531.2061,10.9118,10.9118,0,0,1-1.5137.5537c-.9707.2754-1.4609,1.0313-1.3652,1.1611a4.5926,4.5926,0,0,1,.3809,1.2452A.49.49,0,0,0,132.0961,32.4163ZM97.3168,36.1985c2.4531-5.4014,5.0586-10.82,5.9844-12.209,0,0,.3047-.2656.32.18a98.321,98.321,0,0,0,.7539,9.9668C102.0063,34.8255,99.5922,35.5305,97.3168,36.1985Zm26.8672-5.5859a3.6559,3.6559,0,0,0,1.4492-2.5069c-1.4336.8848-.7011-.2187-5.9941,1.4717-.5977.2188-1.8438.6094-3.5254,1.1153l.0723-.7735c.66-5.5,4.4218-6.9463,6.9785-8.2314.5508-.2793,1.0722-2.2334-2.01-1.57-4.541.9755-6.7637,5.8388-7.41,7.8212l-.3946,1.335c-.2187.7842-.4219,1.5947-.6074,2.4209-1.5176.4473-3.1895.9356-4.9375,1.4453-.8281-8.1465-.707-12.2851-1.9883-12.7744-.3554-.1367-2.4492-.7637-3.4629-.1338-1.164.7276-6.07,9.5977-10.1972,17.502a68.6122,68.6122,0,0,0-6.7969,2.24c-1.02.5469,1.7129,2.4043,2.9219,2.5918a10.1019,10.1019,0,0,0,1.5879-.4043c-2.0079,3.9434-3.5235,7.0645-3.7891,7.8535,1.0234-.1826,2.9824.7637,4.4844-.1347a5.3556,5.3556,0,0,0,2.1015-2.8516c.5567-1.4893,1.5684-3.8965,2.7637-6.6133,2.8066-.9043,6.15-2.0029,9.4746-3.1035.8516,4.5342,1.5313,8.916,4.1289,11.3291.252.2373,1.0781.665.9.0322-1.2129-4.3047-1.3828-8.5732-1.8008-12.4355l3.99-1.3311c-1.1543,7.0987.164,13.8115,1.7871,13.751.7441-.0264.7422-1.0547.8574-2.0391.09-.7285.2266-3.9072.3047-4.6367L115.84,33.66c3.0312-1.02,5.07-1.711,5.1406-1.7393C122.4008,31.3616,123.6371,30.929,124.184,30.6126Zm25.74,3.9668c-1.2968.0664-2.7753,1.4472-3.9375,3.1426l-.0625.121c-.207.3047-.4.6211-.5878.9444-2.0274,2.8457-4.58,6.4013-6.3575,6.4013-.7011,0-1.3261-1.4287-.7461-3.1093,1.9024-5.51,6.7364-6.499,6.3008-7.2168a8.4939,8.4939,0,0,0-6.8965,1.7636c-3.5019,2.5323-7.3906,7.4-7.5937,7.1075-.8867-1.5117,2.6289-5.6582,4.1875-8.7969,0,0-.8438-.0166-1.3809.0352a8.2062,8.2062,0,0,0-2.9961.7578s-2.9511,4.26-3.3125,6.2089c-.4023,2.169.0528,4.6163,1.43,4.5811,1.9961-.0488,4.5586-3.5381,6.6367-6.0684a6.6106,6.6106,0,0,0-.4218,1.1807c-.6582,2.6777-.1446,5.8984,3.8359,5.8984,1.8086,0,3.9-2.3505,5.7441-4.8193-.4,1.9111-.0273,3.38,1.6836,3.2891a6.875,6.875,0,0,0,4.8047-2.4688c.9668,2.9854,3.1973,2.041,3.1973,2.041a6.23,6.23,0,0,1-.7383-3.2011,35.67,35.67,0,0,1,1.0273-6.2891c.1094-.4072.2071-.8018.2872-1.1709A16.2214,16.2214,0,0,0,149.9242,34.5794Zm-.32,6.581a9.7214,9.7214,0,0,1-2.7675,2.8174c-.25-1.0947,1.34-4.4912,2.2871-5.91.6074-.9161.955-1.14,1.291-1.2813C151.5043,37.0257,150.2094,40.2454,149.6039,41.16ZM15.934,37.7317c2.8926-.0742,6.3906-1.9082,6.0781,1.96a9.0986,9.0986,0,0,1-2.0468,4.1045c-1.3067,1.7177-5.5547,7.3359-5.8809,8.1425-.3281.8067.4727.4922.7676.8516,6.1855-4.4414,10.3613-10.3965,15.4844-14.47-.295,1.6572-3.334,7.7676,1.3144,7.6494a6.4828,6.4828,0,0,0,5.8711-4.9453,22.8935,22.8935,0,0,0,.6328-5.7471c-2.5332.3213-3.1973-.582-4.543-.5478-2.6484.0664-4.914,3.8183-7.9414,6.7812a6.319,6.319,0,0,0,.9-2.6562c.2442-3.4043-4.0957-3.77-6.1367-3.7188a18.8042,18.8042,0,0,1-4.1.1328c-.1523-.1191.0059-.2832.2871-.8711.9766-2.3847,8.459-12.0166,9.7266-13.2168.1582-.1074-.4121-.4746-.7676-.6914a3.8918,3.8918,0,0,0-4.7129.1192c-4.0586,4.205-7.457,8.1943-8.7148,11.3027C10.7641,35.347,11.3676,37.8489,15.934,37.7317Zm17.5449,1.3164c.3262-.8066.5879-.6533.8379-1.1094,1.0059.2735.6,3.1543.2715,3.962a8.0724,8.0724,0,0,1-1.7812,2.4423C32.3461,43.33,32.975,40.303,33.4789,39.0481Zm43.543-.7422c-1.2773-2.5488-6.9453,2.545-7.502,3.16.6329-2.4649,1.41-5.0918,2.1563-7.2432a54.7177,54.7177,0,0,1,4.0293-9.9717c.43-.7978.5332-1.6582-.1621-2.0888a1.3649,1.3649,0,0,0-.6035-.19c-.8379.0087-1.4512.5136-2.2676.6142L69.184,30.9046c-2.0488.5586-4.3457,1.2646-4.8848,1.2793.2325-1.5342,3.8868-5.4815.3868-4.9952-.8086.1143-.4551.375-1.543.4307-1.3125,1.7549-1.8555,4.27-2.85,6.499-.252.5713-2.9336,2.0987-4.6035,2.3418a2.6674,2.6674,0,0,0,2.4453.3243c.625-.1065.6133.0283.5586.2587-.07.2891-.1133.4444-.2032.7178-.957,2.959-4.6269,5.4551-5.3417,5.92-.6915-2.1191,2.0742-8.2187-1.35-8.1308-4.7285.1191-7.58,7.8906-9.957,9.666C40.7153,43.29,44.51,38.11,46.4906,34.1136l-1.7558.0439a8.5529,8.5529,0,0,0-3.2539.999,55.136,55.136,0,0,0-3.1426,7.7783c-.25,1.0977-.0508,5.0225,1.7031,4.9795,3.4688-.0888,7.7989-8.11,9.24-9.7441-.0157,2.3838-1.5645,7.0762,2.0254,6.9863,2.0781-.0537,4.5957-2.6875,6.43-3.6787-.2148,2.1836-.6875,6.4121,2.15,7.6514-.26-1.1475.5059-5.2422.8047-6.5147a26.6521,26.6521,0,0,1,3.1856-7.5019c.5566-.6406,2.3379-1.3457,4.6484-2.6465a13.7953,13.7953,0,0,1-.748,3.0117c-.7832,3.4141-2.6914,9.2207-2.7247,12.2432l-.01.9228.9082-.2793c3.6621-1.1347,5.334-7.0791,7.7031-7.416.9434,1.55,1.1895,6.2578,3.6992,6.1777l1.42-.0371C79.3793,44.4358,78.2582,40.7747,77.0219,38.3059Z" transform="translate(-0.768 -0.3909)" fill="#fff" fill-rule="evenodd"/><path d="M15.7739,91.2639l-.4659,3.295c-.3916,2.7363-.5215,3.873-.6142,4.8027H12.3481c.1484-.8555.372-2.1592.7265-4.7461l.4463-3.332c.335-2.5137.503-3.7051.5772-4.5244h2.3633C16.3129,87.6155,16.1274,88.7884,15.7739,91.2639Z" transform="translate(-0.768 -0.3909)" fill="#fff"/><path d="M26.2162,94.2054l-.3545,2.42c-.1484.9687-.2793,1.8808-.3535,2.7363H23.2748l.67-4.7461a11.9762,11.9762,0,0,0,.13-1.3594c0-.9121-.3535-1.34-.8925-1.34-.5957,0-1.3409.3164-2.6446,2.084,0,0-.65,4.8408-.7246,5.3613H17.559c.2422-1.4141.5039-3.09.708-4.6162a18.7949,18.7949,0,0,0,.2793-4.374l2.2529-.168a10.479,10.479,0,0,1-.1113,2.1035c1.5625-1.9551,2.6055-2.2529,3.6856-2.2529,1.2285,0,1.9921.7256,1.9921,2.3828A14.1828,14.1828,0,0,1,26.2162,94.2054Z" transform="translate(-0.768 -0.3909)" fill="#fff"/><path d="M33.475,92.3069a2.6933,2.6933,0,0,0-1.73-.67c-.9307,0-1.3223.5586-1.3223,1.1172,0,.65.2988.9492,1.1914,1.5449,1.0986.7441,1.6572,1.3955,1.6572,2.4375,0,1.416-1.0986,2.8486-3.5742,2.8486a5.3413,5.3413,0,0,1-2.3271-.5771l.3164-1.88a3.0224,3.0224,0,0,0,2.0664.9307c.8193,0,1.3027-.3721,1.3027-1.0606,0-.5215-.2793-.875-1.0977-1.4531-1.1914-.8555-1.6933-1.4512-1.6933-2.5684,0-1.5449,1.1719-2.9228,3.499-2.9228a5.9487,5.9487,0,0,1,2.1035.4092Z" transform="translate(-0.768 -0.3909)" fill="#fff"/><path d="M38.5014,99.5667a3.5085,3.5085,0,0,1-1.5635-.4278c-.2422,1.545-.5029,3.1465-.6894,4.5235l-2.2891.0185c.26-1.583.6143-3.5742,1.1543-7.1484a42.7445,42.7445,0,0,0,.6514-6.1807l2.29-.13c0,.2236-.1309,1.3212-.2236,1.8984,1.2841-1.6192,2.3271-2.0664,3.4248-2.0664,1.4531,0,2.4023,1.1357,2.4023,3.37C43.6586,96.2346,41.61,99.5667,38.5014,99.5667Zm1.7314-7.6875c-.7636,0-1.5644.5957-2.5879,2.01l-.4843,3.5743a1.9,1.9,0,0,0,1.3037.4648c1.8428,0,2.96-2.3076,2.96-4.17C41.4242,92.4182,40.9594,91.8792,40.2328,91.8792Z" transform="translate(-0.768 -0.3909)" fill="#fff"/><path d="M47.7719,94.6712c-.2988,2.0654-.5781,4.0576-.6328,4.69H44.8862c.1113-.67.2783-1.75.6513-4.2627.3731-2.55.5215-3.9092.6143-4.7842l2.29-.0742C48.2182,91.6,48.0512,92.66,47.7719,94.6712Zm-.0938-6.2744c-.6513,0-1.2656-.334-1.2656-1.042a1.2016,1.2016,0,0,1,1.3594-1.1914c.6328,0,1.2285.2978,1.2285,1.042A1.218,1.218,0,0,1,47.6781,88.3968Z" transform="translate(-0.768 -0.3909)" fill="#fff"/><path d="M55.85,92.344a1.4192,1.4192,0,0,0-.8926-.2793c-.82,0-1.6386.67-2.3828,2.4571l-.2988,2.0849c-.13.8936-.26,1.8994-.335,2.7549H49.725c.2246-1.1914.41-2.5127.6709-4.374a27.5729,27.5729,0,0,0,.4287-4.6729l2.1778-.0927a19.5516,19.5516,0,0,1-.2051,2.1591c.8564-1.6191,1.75-2.2715,2.793-2.2715a2.1729,2.1729,0,0,1,.8.15Z" transform="translate(-0.768 -0.3909)" fill="#fff"/><path d="M59.4242,94.6712c-.2978,2.0654-.5771,4.0576-.6328,4.69H56.54c.1113-.67.2793-1.75.65-4.2627.373-2.55.5215-3.9092.6152-4.7842l2.2891-.0742C59.8715,91.6,59.7035,92.66,59.4242,94.6712Zm-.0937-6.2744c-.65,0-1.2656-.334-1.2656-1.042a1.202,1.202,0,0,1,1.3593-1.1914c.6329,0,1.2286.2978,1.2286,1.042A1.2175,1.2175,0,0,1,59.3305,88.3968Z" transform="translate(-0.768 -0.3909)" fill="#fff"/><path d="M63.4633,95.7132a4.2725,4.2725,0,0,0-.0371.5029c.0185.9307.373,1.7314,1.5644,1.7314a5.6339,5.6339,0,0,0,3.1456-1.4892l.0927,1.7119a6.4538,6.4538,0,0,1-3.7226,1.415c-2.1035,0-3.1836-1.1914-3.1836-3.499,0-2.793,2.0664-6.0322,5.38-6.0322,1.75,0,2.55.875,2.55,2.0478C69.2524,93.87,67.7446,95.1917,63.4633,95.7132Zm2.7559-4.0957c-1.1368,0-2.2911,1.2109-2.625,2.7363,2.5127-.2783,3.667-1.042,3.667-1.8613C67.2612,91.6927,66.61,91.6175,66.2192,91.6175Z" transform="translate(-0.768 -0.3909)" fill="#fff"/><path d="M76.2524,92.344a1.4211,1.4211,0,0,0-.8946-.2793c-.8183,0-1.6367.67-2.3828,2.4571l-.2969,2.0849c-.1308.8936-.2607,1.8994-.3359,2.7549H70.1274c.2236-1.1914.41-2.5127.67-4.374a27.4661,27.4661,0,0,0,.4287-4.6729l2.1777-.0927A19.4866,19.4866,0,0,1,73.2,92.3811c.8555-1.6191,1.75-2.2715,2.792-2.2715a2.1633,2.1633,0,0,1,.8.15Z" transform="translate(-0.768 -0.3909)" fill="#fff"/><path d="M78.5571,95.7132a4.068,4.068,0,0,0-.0372.5029c.0176.9307.3721,1.7314,1.5635,1.7314a5.6334,5.6334,0,0,0,3.1455-1.4892l.0938,1.7119a6.4571,6.4571,0,0,1-3.7237,1.415c-2.1035,0-3.1826-1.1914-3.1826-3.499,0-2.793,2.0664-6.0322,5.3789-6.0322,1.75,0,2.5508.875,2.5508,2.0478C84.3461,93.87,82.8383,95.1917,78.5571,95.7132Zm2.7548-4.0957c-1.1357,0-2.29,1.2109-2.625,2.7363,2.5127-.2783,3.667-1.042,3.667-1.8613C82.3539,91.6927,81.7035,91.6175,81.3119,91.6175Z" transform="translate(-0.768 -0.3909)" fill="#fff"/><path d="M93.8959,94.2054l-.3545,2.42c-.1484.9687-.2793,1.8808-.3535,2.7363H90.9545l.67-4.7461a11.9762,11.9762,0,0,0,.13-1.3594c0-.9121-.3535-1.34-.8926-1.34-.5957,0-1.3408.3164-2.6445,2.084,0,0-.65,4.8408-.7246,5.3613H85.2387c.2422-1.4141.5039-3.09.708-4.6162a18.7949,18.7949,0,0,0,.2793-4.374l2.2529-.168a10.4867,10.4867,0,0,1-.1113,2.1035c1.5625-1.9551,2.6055-2.2529,3.6855-2.2529,1.2286,0,1.9922.7256,1.9922,2.3828A14.2018,14.2018,0,0,1,93.8959,94.2054Z" transform="translate(-0.768 -0.3909)" fill="#fff"/><path d="M104.1713,91.9163l-.5029,3.6484a22.9077,22.9077,0,0,0-.2422,2.7178,4.8758,4.8758,0,0,0,.0937,1.0615l-2.1406.167a2.705,2.705,0,0,1-.1123-.875,11.535,11.535,0,0,1,.1123-1.4892c-1.3408,1.8808-2.4394,2.42-3.5,2.42-1.2656,0-2.3457-.9678-2.3457-3.1465,0-3.666,2.7178-6.3662,5.1758-6.3662a3.35,3.35,0,0,1,1.5449.3174c.334-2.4209.52-3.8731.5391-4.3946l2.29-.0547C104.8793,87.0012,104.6,88.7884,104.1713,91.9163Zm-3.4619-.2236c-1.5273,0-2.9609,1.9736-2.9609,4.2255,0,1.1914.373,1.8057,1.0429,1.8057.6514,0,1.4336-.4658,2.6992-2.4014.1114-.67.41-2.6064.502-3.2763A2.402,2.402,0,0,0,100.7094,91.6927Z" transform="translate(-0.768 -0.3909)" fill="#fff"/><path d="M107.7074,95.7132a4.2941,4.2941,0,0,0-.0371.5029c.0186.9307.3731,1.7314,1.5645,1.7314a5.6334,5.6334,0,0,0,3.1455-1.4892l.0928,1.7119a6.4543,6.4543,0,0,1-3.7227,1.415c-2.1035,0-3.1836-1.1914-3.1836-3.499,0-2.793,2.0664-6.0322,5.38-6.0322,1.75,0,2.55.875,2.55,2.0478C113.4965,93.87,111.9887,95.1917,107.7074,95.7132Zm2.7559-4.0957c-1.1367,0-2.291,1.2109-2.625,2.7363,2.5127-.2783,3.667-1.042,3.667-1.8613C111.5053,91.6927,110.8539,91.6175,110.4633,91.6175Z" transform="translate(-0.768 -0.3909)" fill="#fff"/><path d="M127.9047,92.3811c-1.7129,3.3135-2.8476,5.51-3.6289,7.0743h-2.2344c-.2988-1.545-.7441-3.3887-1.4521-6.7012-.5772-2.625-1.0615-4.7852-1.3213-5.9951h2.4941l1.6758,9.3447a5.91,5.91,0,0,1,.0742,1.1172h.0371a6.1813,6.1813,0,0,1,.3907-1.1172l4.3935-9.3447h2.4756C130.1762,87.9505,129.3012,89.6448,127.9047,92.3811Z" transform="translate(-0.768 -0.3909)" fill="#fff"/><path d="M133.3774,94.6712c-.2969,2.0654-.5762,4.0576-.6328,4.69h-2.252c.1113-.67.2793-1.75.6514-4.2627.372-2.55.52-3.9092.6142-4.7842l2.2891-.0742C133.8246,91.6,133.6567,92.66,133.3774,94.6712Zm-.0928-6.2744c-.6514,0-1.2656-.334-1.2656-1.042a1.2012,1.2012,0,0,1,1.3584-1.1914c.6328,0,1.2285.2978,1.2285,1.042A1.2166,1.2166,0,0,1,133.2846,88.3968Z" transform="translate(-0.768 -0.3909)" fill="#fff"/><path d="M137.4164,95.7132a4.5221,4.5221,0,0,0-.0371.5029c.02.9307.3731,1.7314,1.5645,1.7314a5.6361,5.6361,0,0,0,3.1465-1.4892l.0918,1.7119a6.4518,6.4518,0,0,1-3.7227,1.415c-2.1035,0-3.1836-1.1914-3.1836-3.499,0-2.793,2.0664-6.0322,5.3809-6.0322,1.75,0,2.55.875,2.55,2.0478C143.2065,93.87,141.6987,95.1917,137.4164,95.7132Zm2.7559-4.0957c-1.1358,0-2.2891,1.2109-2.625,2.7363,2.5137-.2783,3.668-1.042,3.668-1.8613C141.2153,91.6927,140.5629,91.6175,140.1723,91.6175Z" transform="translate(-0.768 -0.3909)" fill="#fff"/><path d="M147.3207,92.27c-.5215,3.7227-.875,6.4219-.9492,7.0918H144.1c.13-.707.4278-2.6992.9678-6.59.4463-3.2383.7627-5.417.9307-6.795L148.27,85.94C148.0092,87.5784,147.7856,89.012,147.3207,92.27Z" transform="translate(-0.768 -0.3909)" fill="#fff"/><path d="M155.6225,87.7835a2.1355,2.1355,0,0,0-1.0986-.3535c-.7442,0-1.34.4091-1.6006,1.5078-.0928.4092-.167.8-.2422,1.3213h2.0849l-.26,1.4521H152.477l-.708,4.7656c-.6885,4.6543-1.545,6.292-2.1035,7.0176l-2.1036.1865c.7256-.9677,1.378-2.6435,2.0108-7.0185l.7256-4.9512h-.8936l.4473-1.4521h.67c.0937-.5586.168-1.0245.2793-1.4522a3.5,3.5,0,0,1,3.6855-2.9785,4.4093,4.4093,0,0,1,1.4707.2793Z" transform="translate(-0.768 -0.3909)" fill="#fff"/><path d="M163.44,99.1194a4.4542,4.4542,0,0,1-1.5821.4473c-1.1347,0-1.73-.5586-1.6757-2.2891-1.2832,1.6934-2.3077,2.2891-3.3692,2.2891-1.4883,0-2.3828-1.0606-2.3828-3.0156,0-3.4629,2.4023-6.4971,5.623-6.4971a5.8394,5.8394,0,0,1,1.7305.2978c.3731-.0185,1.08-.1484,1.4522-.205a54.55,54.55,0,0,0-.9678,6.6836c0,.9306.2793,1.1357.7256,1.1357a1.8433,1.8433,0,0,0,.6142-.2051Zm-3.7784-7.3711c-1.6,0-3.0156,2.0479-3.0156,4.2442,0,1.1543.3721,1.6572,1.0244,1.6572.67,0,1.545-.6885,2.5869-2.1592.1495-.9121.4463-2.7363.5586-3.4629h.0186A2.1424,2.1424,0,0,0,159.6615,91.7483Z" transform="translate(-0.768 -0.3909)" fill="#fff"/><path d="M168.0746,92.27c-.52,3.7227-.875,6.4219-.9492,7.0918h-2.2715c.1309-.707.4287-2.6992.9688-6.59.4472-3.2383.7637-5.417.9306-6.795l2.2706-.0371C168.7641,87.5784,168.5405,89.012,168.0746,92.27Z" transform="translate(-0.768 -0.3909)" fill="#fff"/><path d="M175.186,91.6741h-2.1221c-.1494.9678-.335,2.0293-.5029,3.1455a20.6819,20.6819,0,0,0-.2793,2.1045c0,.7256.2236.9492.6894.9492a3.6776,3.6776,0,0,0,1.377-.6328l-.13,1.5625a4.878,4.878,0,0,1-2.2715.7822c-1.2656,0-1.8613-.6513-1.8613-2.0478a20.3058,20.3058,0,0,1,.2607-2.2334c.168-1.042.4092-2.4385.5957-3.63h-1.3779l.4463-1.415h1.1172l.2988-1.8428,2.2334-.7637-.4092,2.6065h2.27Z" transform="translate(-0.768 -0.3909)" fill="#fff"/></svg>