<?xml version="1.0" encoding="utf-8"?>
<!-- Generator: Adobe Illustrator 24.0.0, SVG Export Plug-In . SVG Version: 6.00 Build 0)  -->
<svg version="1.1" id="Ebene_1" xmlns="http://www.w3.org/2000/svg" xmlns:xlink="http://www.w3.org/1999/xlink" x="0px" y="0px"
	 viewBox="0 0 205.2 103.3" style="enable-background:new 0 0 205.2 103.3;" xml:space="preserve">
<style type="text/css">
	.st0{fill:#008C3C;}
	.st1{fill-rule:evenodd;clip-rule:evenodd;fill:#FFCC00;}
	.st2{fill:#153D8A;}
	.st3{fill:#FFFFFF;}
	.st4{fill:#E30613;}
	.st5{fill-rule:evenodd;clip-rule:evenodd;fill:#0D181C;}
	.st6{fill-rule:evenodd;clip-rule:evenodd;fill:#FFFFFF;}
</style>
<title>partner</title>
<polygon class="st0" points="153.4,0.1 151.4,0.1 129.9,0.1 151.4,13.6 190.5,38.1 151.4,62.6 129.9,76 151.4,76 153.4,76 
	204.7,42.8 204.7,33.3 "/>
<polygon class="st1" points="177.4,38.1 115.8,76 129.9,76 190.5,38.1 129.9,0.1 115.8,0.1 "/>
<polygon class="st2" points="204.7,76 204.7,51.1 166.3,76 "/>
<polygon class="st3" points="153.4,76 166.3,76 204.7,51.1 204.7,42.8 "/>
<polygon class="st4" points="166.3,0.1 204.7,25.1 204.7,0.1 "/>
<polygon class="st3" points="153.4,0.1 204.7,33.3 204.7,25.1 166.3,0.1 "/>
<polygon class="st5" points="0.1,76 115.9,76 177.5,38.1 115.9,0.1 0.1,0.1 "/>
<path class="st6" d="M125.9,34.3c-1.1-0.3-2.2-0.2-3.3,0.2c-1.4,0.6-2.6,1.5-3.4,2.7c0.1-1,0.5-1.9,1-2.7c-0.8,0.1-1.5,0.3-2.2,0.5
	c-0.1,0.1-0.2,0.1-0.3,0.2c-0.3,0.2-0.4,0.6-0.5,0.9l-2,8.9c0.4,0.3,0.8,0.6,1.3,0.7c0.8-0.1,1.6-0.3,2.4-0.6c-0.1-0.3,0-0.7,0.1-1
	c0.2-0.6,0.4-1.3,0.5-2c0.8-3.3,3.2-5.9,6.4-7.1C126.3,34.6,126.4,34.3,125.9,34.3z M130.3,31c0,0,0.1,0.1,0.1,0.1
	c0.8-0.1,1.6-0.3,2.4-0.6c0.5-0.2,0.9-0.7,1.1-1.2c0.1-0.5,0-1.1-0.2-1.5c-0.1-0.2-0.4-0.3-0.6-0.3c-0.2,0-0.3,0.1-0.5,0.2
	c-0.5,0.2-1,0.4-1.5,0.6c-1,0.3-1.5,1-1.4,1.2c0.2,0.4,0.3,0.8,0.4,1.2C130.2,30.8,130.2,30.9,130.3,31z M95.5,34.8
	c2.5-5.4,5.1-10.8,6-12.2c0,0,0.3-0.3,0.3,0.2c0.1,3.3,0.3,6.7,0.8,10C100.2,33.4,97.8,34.1,95.5,34.8z M122.4,29.2
	c0.8-0.6,1.3-1.5,1.4-2.5c-1.4,0.9-0.7-0.2-6,1.5c-0.6,0.2-1.8,0.6-3.5,1.1l0.1-0.8c0.7-5.5,4.4-6.9,7-8.2c0.6-0.3,1.1-2.2-2-1.6
	c-4.5,1-6.8,5.8-7.4,7.8l-0.4,1.3c-0.2,0.8-0.4,1.6-0.6,2.4c-1.5,0.4-3.2,0.9-4.9,1.4c-0.8-8.1-0.7-12.3-2-12.8
	c-0.4-0.1-2.4-0.8-3.5-0.1c-1.2,0.7-6.1,9.6-10.2,17.5c-2.3,0.6-4.6,1.4-6.8,2.2c-1,0.5,1.7,2.4,2.9,2.6c0.5-0.1,1.1-0.2,1.6-0.4
	c-2,3.9-3.5,7.1-3.8,7.9c1-0.2,3,0.8,4.5-0.1c1-0.7,1.7-1.7,2.1-2.9c0.6-1.5,1.6-3.9,2.8-6.6c2.8-0.9,6.2-2,9.5-3.1
	c0.9,4.5,1.5,8.9,4.1,11.3c0.3,0.2,1.1,0.7,0.9,0c-1.2-4.3-1.4-8.6-1.8-12.4l4-1.3c-1.2,7.1,0.2,13.8,1.8,13.8c0.7,0,0.7-1.1,0.9-2
	c0.1-0.7,0.2-3.9,0.3-4.6l0.8-8.3c3-1,5.1-1.7,5.1-1.7C120.6,30,121.9,29.5,122.4,29.2z M148.2,33.2c-1.3,0.1-2.8,1.4-3.9,3.1
	l-0.1,0.1c-0.2,0.3-0.4,0.6-0.6,0.9c-2,2.8-4.6,6.4-6.4,6.4c-0.7,0-1.3-1.4-0.7-3.1c1.9-5.5,6.7-6.5,6.3-7.2c-2.4-0.5-5,0.2-6.9,1.8
	c-3.5,2.5-7.4,7.4-7.6,7.1c-0.9-1.5,2.6-5.7,4.2-8.8c0,0-0.8,0-1.4,0c-1,0.1-2.1,0.3-3,0.8c0,0-3,4.3-3.3,6.2
	c-0.4,2.2,0.1,4.6,1.4,4.6c2,0,4.6-3.5,6.6-6.1c-0.2,0.4-0.3,0.8-0.4,1.2c-0.7,2.7-0.1,5.9,3.8,5.9c1.8,0,3.9-2.4,5.7-4.8
	c-0.4,1.9,0,3.4,1.7,3.3c1.9-0.1,3.6-1,4.8-2.5c1,3,3.2,2,3.2,2c-0.5-1-0.8-2.1-0.7-3.2c0.2-2.1,0.5-4.2,1-6.3
	c0.1-0.4,0.2-0.8,0.3-1.2C150.9,33.2,149.5,33.1,148.2,33.2L148.2,33.2z M147.8,39.8c-0.7,1.1-1.7,2.1-2.8,2.8
	c-0.2-1.1,1.3-4.5,2.3-5.9c0.6-0.9,1-1.1,1.3-1.3C149.7,35.6,148.4,38.9,147.8,39.8L147.8,39.8z M14.2,36.3c2.9-0.1,6.4-1.9,6.1,2
	c-0.3,1.5-1,2.9-2,4.1c-1.3,1.7-5.6,7.3-5.9,8.1c-0.3,0.8,0.5,0.5,0.8,0.9C19.3,47,23.4,41,28.6,36.9c-0.3,1.7-3.3,7.8,1.3,7.6
	c2.8-0.2,5.2-2.2,5.9-4.9c0.5-1.9,0.7-3.8,0.6-5.7c-2.5,0.3-3.2-0.6-4.5-0.5c-2.6,0.1-4.9,3.8-7.9,6.8c0.5-0.8,0.8-1.7,0.9-2.7
	c0.2-3.4-4.1-3.8-6.1-3.7c-1.4,0.2-2.7,0.2-4.1,0.1c-0.2-0.1,0-0.3,0.3-0.9c1-2.4,8.5-12,9.7-13.2c0.2-0.1-0.4-0.5-0.8-0.7
	c-1.4-1-3.3-1-4.7,0.1c-4.1,4.2-7.5,8.2-8.7,11.3C9,34,9.6,36.5,14.2,36.3z M31.7,37.7c0.3-0.8,0.6-0.7,0.8-1.1c1,0.3,0.6,3.2,0.3,4
	c-0.4,0.9-1,1.7-1.8,2.4C30.6,41.9,31.2,38.9,31.7,37.7z M75.3,36.9c-1.3-2.5-6.9,2.5-7.5,3.2c0.6-2.5,1.4-5.1,2.2-7.2
	c1-3.4,2.4-6.8,4-10c0.4-0.8,0.5-1.7-0.2-2.1c-0.2-0.1-0.4-0.2-0.6-0.2c-0.8,0-1.5,0.5-2.3,0.6l-3.5,8.3c-2,0.6-4.3,1.3-4.9,1.3
	c0.2-1.5,3.9-5.5,0.4-5c-0.8,0.1-0.5,0.4-1.5,0.4c-1.3,1.8-1.9,4.3-2.8,6.5c-0.3,0.6-2.9,2.1-4.6,2.3c0.7,0.5,1.6,0.6,2.4,0.3
	c0.6-0.1,0.6,0,0.6,0.3c-0.1,0.3-0.1,0.4-0.2,0.7c-1,3-4.6,5.5-5.3,5.9c-0.7-2.1,2.1-8.2-1.3-8.1c-4.7,0.1-7.6,7.9-10,9.7
	c-1.1-1.9,2.7-7.1,4.6-11.1l-1.8,0c-1.1,0.1-2.2,0.5-3.3,1c-1.2,2.5-2.3,5.1-3.1,7.8c-0.2,1.1-0.1,5,1.7,5c3.5-0.1,7.8-8.1,9.2-9.7
	c0,2.4-1.6,7.1,2,7c2.1-0.1,4.6-2.7,6.4-3.7c-0.2,2.2-0.7,6.4,2.2,7.7c-0.3-1.1,0.5-5.2,0.8-6.5c0.7-2.6,1.7-5.2,3.2-7.5
	c0.6-0.6,2.3-1.3,4.6-2.6c-0.1,1-0.4,2-0.7,3c-0.8,3.4-2.7,9.2-2.7,12.2l0,0.9l0.9-0.3c3.7-1.1,5.3-7.1,7.7-7.4
	c0.9,1.5,1.2,6.3,3.7,6.2l1.4,0C77.6,43,76.5,39.4,75.3,36.9z"/>
<g>
	<path class="st3" d="M14,89.9l-0.5,3.3C13.1,95.9,13,97,12.9,98h-2.3c0.1-0.9,0.4-2.2,0.7-4.7l0.4-3.3c0.3-2.5,0.5-3.7,0.6-4.5h2.4
		C14.5,86.2,14.4,87.4,14,89.9z"/>
	<path class="st3" d="M24.4,92.8l-0.4,2.4c-0.1,1-0.3,1.9-0.4,2.7h-2.2l0.7-4.7c0.1-0.5,0.1-0.9,0.1-1.4c0-0.9-0.4-1.3-0.9-1.3
		c-0.6,0-1.3,0.3-2.6,2.1c0,0-0.6,4.8-0.7,5.4h-2.3c0.2-1.4,0.5-3.1,0.7-4.6c0.3-1.4,0.4-2.9,0.3-4.4l2.3-0.2c0,0.7,0,1.4-0.1,2.1
		c1.6-2,2.6-2.3,3.7-2.3c1.2,0,2,0.7,2,2.4C24.6,91.6,24.5,92.2,24.4,92.8z"/>
	<path class="st3" d="M31.7,90.9c-0.5-0.4-1.1-0.7-1.7-0.7c-0.9,0-1.3,0.6-1.3,1.1c0,0.7,0.3,0.9,1.2,1.5c1.1,0.7,1.7,1.4,1.7,2.4
		c0,1.4-1.1,2.8-3.6,2.8c-0.8,0-1.6-0.2-2.3-0.6l0.3-1.9c0.5,0.6,1.3,0.9,2.1,0.9c0.8,0,1.3-0.4,1.3-1.1c0-0.5-0.3-0.9-1.1-1.5
		c-1.2-0.9-1.7-1.5-1.7-2.6c0-1.5,1.2-2.9,3.5-2.9c0.7,0,1.4,0.1,2.1,0.4L31.7,90.9z"/>
	<path class="st3" d="M36.7,98.2c-0.5,0-1.1-0.2-1.6-0.4c-0.2,1.5-0.5,3.1-0.7,4.5l-2.3,0c0.3-1.6,0.6-3.6,1.2-7.1
		c0.4-2,0.6-4.1,0.7-6.2l2.3-0.1c0,0.2-0.1,1.3-0.2,1.9c1.3-1.6,2.3-2.1,3.4-2.1c1.5,0,2.4,1.1,2.4,3.4
		C41.9,94.8,39.8,98.2,36.7,98.2z M38.5,90.5c-0.8,0-1.6,0.6-2.6,2l-0.5,3.6c0.4,0.3,0.8,0.5,1.3,0.5c1.8,0,3-2.3,3-4.2
		C39.7,91,39.2,90.5,38.5,90.5z"/>
	<path class="st3" d="M46,93.3c-0.3,2.1-0.6,4.1-0.6,4.7h-2.3c0.1-0.7,0.3-1.8,0.7-4.3c0.4-2.6,0.5-3.9,0.6-4.8l2.3-0.1
		C46.5,90.2,46.3,91.3,46,93.3z M45.9,87c-0.7,0-1.3-0.3-1.3-1c0-0.7,0.5-1.2,1.2-1.2c0.1,0,0.1,0,0.2,0c0.6,0,1.2,0.3,1.2,1
		C47.2,86.5,46.7,87,45.9,87C46,87,45.9,87,45.9,87z"/>
	<path class="st3" d="M54.1,91c-0.3-0.2-0.6-0.3-0.9-0.3c-0.8,0-1.6,0.7-2.4,2.5l-0.3,2.1c-0.1,0.9-0.3,1.9-0.3,2.8H48
		c0.2-1.2,0.4-2.5,0.7-4.4c0.3-1.5,0.4-3.1,0.4-4.7l2.2-0.1c0,0.7-0.1,1.4-0.2,2.2c0.9-1.6,1.8-2.3,2.8-2.3c0.3,0,0.5,0.1,0.8,0.2
		L54.1,91z"/>
	<path class="st3" d="M57.7,93.3c-0.3,2.1-0.6,4.1-0.6,4.7h-2.3c0.1-0.7,0.3-1.8,0.7-4.3c0.4-2.6,0.5-3.9,0.6-4.8l2.3-0.1
		C58.1,90.2,57.9,91.3,57.7,93.3z M57.6,87c-0.7,0-1.3-0.3-1.3-1c0-0.7,0.5-1.2,1.2-1.2c0.1,0,0.1,0,0.2,0c0.6,0,1.2,0.3,1.2,1
		C58.9,86.5,58.3,87,57.6,87C57.6,87,57.6,87,57.6,87z"/>
	<path class="st3" d="M61.7,94.3c0,0.2,0,0.3,0,0.5c0,0.9,0.4,1.7,1.6,1.7c1.2-0.2,2.3-0.7,3.1-1.5l0.1,1.7
		c-1.1,0.9-2.4,1.3-3.7,1.4c-2.1,0-3.2-1.2-3.2-3.5c0-2.8,2.1-6,5.4-6c1.8,0,2.6,0.9,2.6,2C67.5,92.5,66,93.8,61.7,94.3z M64.5,90.2
		c-1.1,0-2.3,1.2-2.6,2.7c2.5-0.3,3.7-1,3.7-1.9C65.5,90.3,64.8,90.2,64.5,90.2z"/>
	<path class="st3" d="M74.5,91c-0.3-0.2-0.6-0.3-0.9-0.3c-0.8,0-1.6,0.7-2.4,2.5l-0.3,2.1c-0.1,0.9-0.3,1.9-0.3,2.8h-2.2
		c0.2-1.2,0.4-2.5,0.7-4.4c0.3-1.5,0.4-3.1,0.4-4.7l2.2-0.1c0,0.7-0.1,1.4-0.2,2.2c0.9-1.6,1.8-2.3,2.8-2.3c0.3,0,0.5,0,0.8,0.2
		L74.5,91z"/>
	<path class="st3" d="M76.8,94.3c0,0.2,0,0.3,0,0.5c0,0.9,0.4,1.7,1.6,1.7c1.2-0.2,2.3-0.7,3.1-1.5l0.1,1.7
		c-1.1,0.9-2.4,1.3-3.7,1.4c-2.1,0-3.2-1.2-3.2-3.5c0-2.8,2.1-6,5.4-6c1.8,0,2.6,0.9,2.6,2C82.6,92.5,81.1,93.8,76.8,94.3z
		 M79.5,90.2c-1.1,0-2.3,1.2-2.6,2.7c2.5-0.3,3.7-1,3.7-1.9C80.6,90.3,79.9,90.2,79.5,90.2z"/>
	<path class="st3" d="M92.1,92.8l-0.4,2.4c-0.1,1-0.3,1.9-0.4,2.7h-2.2l0.7-4.7c0.1-0.5,0.1-0.9,0.1-1.4c0-0.9-0.4-1.3-0.9-1.3
		c-0.6,0-1.3,0.3-2.6,2.1c0,0-0.7,4.8-0.7,5.4h-2.3c0.2-1.4,0.5-3.1,0.7-4.6c0.3-1.4,0.4-2.9,0.3-4.4l2.3-0.2c0,0.7,0,1.4-0.1,2.1
		c1.6-2,2.6-2.3,3.7-2.3c1.2,0,2,0.7,2,2.4C92.3,91.6,92.2,92.2,92.1,92.8z"/>
	<path class="st3" d="M102.4,90.5l-0.5,3.6c-0.1,0.9-0.2,1.8-0.2,2.7c0,0.4,0,0.7,0.1,1.1l-2.1,0.2c-0.1-0.3-0.1-0.6-0.1-0.9
		c0-0.5,0-1,0.1-1.5c-1.3,1.9-2.4,2.4-3.5,2.4c-1.3,0-2.3-1-2.3-3.1c0-3.7,2.7-6.4,5.2-6.4c0.5,0,1.1,0.1,1.5,0.3
		c0.3-2.4,0.5-3.9,0.5-4.4l2.3-0.1C103.1,85.6,102.8,87.4,102.4,90.5z M98.9,90.3c-1.5,0-3,2-3,4.2c0,1.2,0.4,1.8,1,1.8
		c0.7,0,1.4-0.5,2.7-2.4c0.1-0.7,0.4-2.6,0.5-3.3C99.8,90.4,99.4,90.3,98.9,90.3z"/>
	<path class="st3" d="M105.9,94.3c0,0.2,0,0.3,0,0.5c0,0.9,0.4,1.7,1.6,1.7c1.2-0.2,2.3-0.7,3.1-1.5l0.1,1.7
		c-1.1,0.9-2.4,1.3-3.7,1.4c-2.1,0-3.2-1.2-3.2-3.5c0-2.8,2.1-6,5.4-6c1.8,0,2.6,0.9,2.6,2C111.7,92.5,110.2,93.8,105.9,94.3z
		 M108.7,90.2c-1.1,0-2.3,1.2-2.6,2.7c2.5-0.3,3.7-1,3.7-1.9C109.7,90.3,109.1,90.2,108.7,90.2z"/>
	<path class="st3" d="M126.1,91c-1.7,3.3-2.8,5.5-3.6,7.1h-2.2c-0.3-1.5-0.7-3.4-1.5-6.7c-0.6-2.6-1.1-4.8-1.3-6h2.5l1.7,9.3
		c0.1,0.4,0.1,0.7,0.1,1.1h0c0.1-0.4,0.2-0.8,0.4-1.1l4.4-9.3h2.5C128.4,86.6,127.5,88.3,126.1,91z"/>
	<path class="st3" d="M131.6,93.3c-0.3,2.1-0.6,4.1-0.6,4.7h-2.3c0.1-0.7,0.3-1.8,0.7-4.3c0.4-2.6,0.5-3.9,0.6-4.8l2.3-0.1
		C132.1,90.2,131.9,91.3,131.6,93.3z M131.5,87c-0.7,0-1.3-0.3-1.3-1c0-0.7,0.5-1.2,1.2-1.2c0.1,0,0.1,0,0.2,0c0.6,0,1.2,0.3,1.2,1
		C132.8,86.5,132.3,87,131.5,87C131.6,87,131.5,87,131.5,87L131.5,87z"/>
	<path class="st3" d="M135.6,94.3c0,0.2,0,0.3,0,0.5c0,0.9,0.4,1.7,1.6,1.7c1.2-0.2,2.3-0.7,3.1-1.5l0.1,1.7
		c-1.1,0.9-2.4,1.3-3.7,1.4c-2.1,0-3.2-1.2-3.2-3.5c0-2.8,2.1-6,5.4-6c1.8,0,2.6,0.9,2.6,2C141.4,92.5,139.9,93.8,135.6,94.3z
		 M138.4,90.2c-1.1,0-2.3,1.2-2.6,2.7c2.5-0.3,3.7-1,3.7-1.9C139.4,90.3,138.8,90.2,138.4,90.2z"/>
	<path class="st3" d="M145.6,90.9c-0.5,3.7-0.9,6.4-0.9,7.1h-2.3c0.1-0.7,0.4-2.7,1-6.6c0.4-3.2,0.8-5.4,0.9-6.8l2.3,0
		C146.2,86.2,146,87.6,145.6,90.9z"/>
	<path class="st3" d="M153.9,86.4c-0.3-0.2-0.7-0.3-1.1-0.4c-0.7,0-1.3,0.4-1.6,1.5c-0.1,0.4-0.2,0.8-0.2,1.3h2.1l-0.3,1.5h-2
		l-0.7,4.8c-0.7,4.7-1.5,6.3-2.1,7l-2.1,0.2c0.7-1,1.4-2.6,2-7l0.7-5h-0.9l0.4-1.5h0.7c0.1-0.6,0.2-1,0.3-1.5c0.3-1.8,1.9-3.1,3.7-3
		c0.5,0,1,0.1,1.5,0.3L153.9,86.4z"/>
	<path class="st3" d="M161.7,97.7c-0.5,0.2-1,0.4-1.6,0.4c-1.1,0-1.7-0.6-1.7-2.3c-1.3,1.7-2.3,2.3-3.4,2.3c-1.5,0-2.4-1.1-2.4-3
		c0-3.5,2.4-6.5,5.6-6.5c0.6,0,1.2,0.1,1.7,0.3c0.4,0,1.1-0.1,1.5-0.2c-0.5,2.2-0.8,4.4-1,6.7c0,0.9,0.3,1.1,0.7,1.1
		c0.2,0,0.4-0.1,0.6-0.2L161.7,97.7z M157.9,90.4c-1.6,0-3,2-3,4.2c0,1.2,0.4,1.7,1,1.7c0.7,0,1.5-0.7,2.6-2.2
		c0.1-0.9,0.4-2.7,0.6-3.5h0C158.7,90.4,158.3,90.3,157.9,90.4L157.9,90.4z"/>
	<path class="st3" d="M166.3,90.9c-0.5,3.7-0.9,6.4-0.9,7.1h-2.3c0.1-0.7,0.4-2.7,1-6.6c0.4-3.2,0.8-5.4,0.9-6.8l2.3,0
		C167,86.2,166.8,87.6,166.3,90.9z"/>
	<path class="st3" d="M173.4,90.3h-2.1c-0.1,1-0.3,2-0.5,3.1c-0.1,0.7-0.2,1.4-0.3,2.1c0,0.7,0.2,0.9,0.7,0.9c0.5-0.1,1-0.3,1.4-0.6
		l-0.1,1.6c-0.7,0.4-1.5,0.7-2.3,0.8c-1.3,0-1.9-0.7-1.9-2c0-0.7,0.1-1.5,0.3-2.2c0.2-1,0.4-2.4,0.6-3.6h-1.4l0.4-1.4h1.1l0.3-1.8
		l2.2-0.8l-0.4,2.6h2.3L173.4,90.3z"/>
</g>
</svg>
